<svg width="37" height="37" viewBox="0 0 37 37" fill="none" xmlns="http://www.w3.org/2000/svg">
<path d="M16.1875 21.3125H3.37501C2.64897 21.3125 2.03995 21.0665 1.54795 20.5745C1.05595 20.0825 0.810801 19.4743 0.812509 18.75C0.812509 18.024 1.05851 17.4149 1.55051 16.9229C2.04251 16.4309 2.65068 16.1858 3.37501 16.1875H16.1875V3.375C16.1875 2.64896 16.4335 2.03994 16.9255 1.54794C17.4175 1.05594 18.0257 0.810793 18.75 0.812501C19.476 0.812501 20.0851 1.0585 20.5771 1.5505C21.0691 2.0425 21.3142 2.65067 21.3125 3.375V16.1875H34.125C34.851 16.1875 35.4601 16.4335 35.9521 16.9255C36.4441 17.4175 36.6892 18.0257 36.6875 18.75C36.6875 19.476 36.4415 20.0851 35.9495 20.5771C35.4575 21.0691 34.8493 21.3142 34.125 21.3125H21.3125V34.125C21.3125 34.851 21.0665 35.4601 20.5745 35.9521C20.0825 36.4441 19.4743 36.6892 18.75 36.6875C18.024 36.6875 17.4149 36.4415 16.9229 35.9495C16.4309 35.4575 16.1858 34.8493 16.1875 34.125V21.3125Z" fill="#D9D9D9"/>
</svg>
