<svg width="112" height="102" viewBox="0 0 112 102" fill="none" xmlns="http://www.w3.org/2000/svg">
<path d="M49.5566 22.5928C42.5994 20.3945 35.4253 22.829 31.2178 28.7468C30.9716 29.0927 30.7227 29.4355 30.471 29.775C30.4463 29.8087 30.4156 29.816 30.379 29.7968L23.8281 26.4174C23.8211 26.4138 23.8149 26.4089 23.8098 26.4028C23.8048 26.3967 23.8011 26.3897 23.7989 26.3822C23.7967 26.3746 23.7961 26.3667 23.7971 26.3589C23.7981 26.3511 23.8007 26.3436 23.8048 26.3368C25.5867 23.2933 28.0206 20.5897 30.9309 18.5757C37.6368 13.936 46.4569 12.9543 53.9783 16.3938C54.6665 16.7087 55.3479 17.0364 56.0224 17.3769C56.0409 17.3865 56.0617 17.3913 56.0828 17.3908C56.1039 17.3903 56.1246 17.3846 56.1432 17.3742C58.7267 15.894 61.4407 14.9614 64.2851 14.5764C74.1347 13.2451 83.2348 17.863 88.2578 26.3177C88.2861 26.366 88.2756 26.4028 88.2262 26.4283L81.6822 29.7996C81.6392 29.8223 81.6044 29.8137 81.5779 29.7736C81.0782 29.0267 80.5538 28.2416 80.0019 27.593C75.6763 22.5082 68.9264 20.557 62.5156 22.6038C62.4671 22.6192 62.4584 22.647 62.4895 22.687C62.9892 23.3411 63.5685 24.0388 63.979 24.6464C69.9546 33.5026 69.2888 44.7401 62.4579 52.9818C62.4112 53.0383 62.4231 53.0779 62.4936 53.1006C69.7954 55.4014 77.2962 52.6118 81.3843 46.2175C81.4163 46.1683 81.4584 46.157 81.5106 46.1834L88.0601 49.5123C88.0701 49.5174 88.0789 49.5245 88.086 49.5332C88.0931 49.5418 88.0984 49.5518 88.1015 49.5626C88.1046 49.5733 88.1054 49.5846 88.104 49.5956C88.1025 49.6067 88.0988 49.6174 88.093 49.627C81.4914 60.6146 67.5179 64.7996 56.1047 58.3698C56.0645 58.3471 56.0237 58.3471 55.9826 58.3698C44.5707 64.7628 30.6247 60.6569 23.9778 49.6584C23.9706 49.6463 23.9659 49.6328 23.9641 49.6189C23.9623 49.6049 23.9633 49.5908 23.9672 49.5772C23.971 49.5637 23.9776 49.5511 23.9865 49.5401C23.9954 49.5292 24.0064 49.5202 24.019 49.5136L30.5437 46.1765C30.5904 46.152 30.6279 46.162 30.6563 46.2066C34.8282 52.6487 42.1958 55.3358 49.5717 53.1184C49.5873 53.1136 49.6014 53.1051 49.6129 53.0935C49.6243 53.082 49.6327 53.0679 49.6374 53.0523C49.642 53.0368 49.6427 53.0203 49.6394 53.0045C49.636 52.9886 49.6288 52.9738 49.6184 52.9614C42.1409 44.1639 42.1546 31.4995 49.5882 22.7034C49.5955 22.6947 49.6005 22.6844 49.6029 22.6733C49.6052 22.6622 49.6049 22.6507 49.6017 22.6398C49.5986 22.6289 49.5929 22.619 49.585 22.6108C49.5772 22.6026 49.5674 22.5964 49.5566 22.5928ZM55.9647 26.9021C49.9836 33.1899 50.1414 42.6332 55.988 48.9279C56.0265 48.9688 56.0645 48.9684 56.102 48.9265C61.9253 42.5145 62.0955 33.235 56.0855 26.9021C56.0452 26.8603 56.005 26.8603 55.9647 26.9021Z" fill="black"/>
<path d="M19.7372 76.7363C16.573 82.5243 8.20871 82.2772 5.74871 75.928C4.34162 72.2959 5.75145 68.1559 9.10788 66.1706C13.0148 63.8617 17.7302 65.5206 19.7839 69.4121C19.8077 69.4567 19.799 69.4931 19.7578 69.5214L17.4104 71.179C17.4003 71.1861 17.3887 71.1908 17.3766 71.1928C17.3644 71.1949 17.3519 71.1942 17.34 71.1908C17.3282 71.1873 17.3172 71.1813 17.308 71.1731C17.2988 71.165 17.2916 71.1548 17.2868 71.1435C16.2284 68.642 13.5543 67.5155 11.0325 68.6215C9.26986 69.3944 8.07281 71.3306 8.19636 73.2804C8.50935 78.2273 15.1192 79.6692 17.2278 75.0295C17.2337 75.0163 17.2426 75.0045 17.2537 74.9951C17.2648 74.9857 17.2779 74.9789 17.2921 74.9751C17.3063 74.9713 17.3211 74.9707 17.3356 74.9732C17.3502 74.9758 17.364 74.9815 17.3761 74.9899L19.7167 76.6489C19.7496 76.6726 19.7565 76.7017 19.7372 76.7363Z" fill="black"/>
<path d="M33.7285 73.8676H26.0286C26.0162 73.8676 26.0044 73.8725 25.9956 73.8812C25.9869 73.8899 25.982 73.9017 25.982 73.914L25.9861 80.5432C25.9861 80.5555 25.9812 80.5673 25.9724 80.576C25.9636 80.5847 25.9518 80.5896 25.9394 80.5896L23.0113 80.5978C22.9989 80.5978 22.987 80.5929 22.9783 80.5842C22.9695 80.5755 22.9646 80.5637 22.9646 80.5514V65.3118C22.9646 65.2995 22.9695 65.2877 22.9783 65.279C22.987 65.2703 22.9989 65.2654 23.0113 65.2654H25.9408C25.9531 65.2654 25.965 65.2703 25.9738 65.279C25.9825 65.2877 25.9874 65.2995 25.9874 65.3118L25.9792 70.7148C25.9792 70.7271 25.9841 70.7389 25.9929 70.7476C26.0016 70.7563 26.0135 70.7612 26.0259 70.7612H33.7285C33.7409 70.7612 33.7527 70.7563 33.7615 70.7476C33.7703 70.7389 33.7752 70.7271 33.7752 70.7148V65.3118C33.7752 65.2995 33.7801 65.2877 33.7888 65.279C33.7976 65.2703 33.8095 65.2654 33.8218 65.2654H36.7143C36.7267 65.2654 36.7385 65.2703 36.7473 65.279C36.756 65.2877 36.7609 65.2995 36.7609 65.3118V80.5445C36.761 80.5566 36.7562 80.5682 36.7478 80.5769C36.7393 80.5856 36.7278 80.5906 36.7156 80.591L33.8301 80.6333C33.8179 80.6333 33.8063 80.6286 33.7976 80.6202C33.7888 80.6118 33.7838 80.6003 33.7834 80.5882L33.7752 73.914C33.7752 73.9017 33.7703 73.8899 33.7615 73.8812C33.7527 73.8725 33.7409 73.8676 33.7285 73.8676Z" fill="black"/>
<path d="M52.1223 77.5829L44.1602 77.5856C44.1523 77.5857 44.1446 77.5881 44.1381 77.5925C44.1315 77.5968 44.1263 77.603 44.1232 77.6102L42.7875 80.5677C42.7843 80.5749 42.7791 80.5811 42.7726 80.5854C42.766 80.5898 42.7583 80.5922 42.7504 80.5923L39.2567 80.5978C39.2499 80.5976 39.2433 80.5959 39.2373 80.5926C39.2314 80.5893 39.2264 80.5846 39.2227 80.579C39.2191 80.5733 39.2169 80.5668 39.2163 80.5601C39.2158 80.5533 39.2169 80.5466 39.2196 80.5404L46.0107 65.3159C46.0139 65.3087 46.0191 65.3025 46.0256 65.2982C46.0322 65.2938 46.0399 65.2914 46.0478 65.2913L50.1908 65.2681C50.1989 65.2679 50.2069 65.2702 50.2138 65.2746C50.2206 65.2789 50.226 65.2852 50.2292 65.2926L57.0753 80.5472C57.078 80.5534 57.0791 80.5602 57.0786 80.5669C57.078 80.5736 57.0758 80.5801 57.0722 80.5858C57.0685 80.5914 57.0635 80.5961 57.0575 80.5994C57.0516 80.6027 57.045 80.6045 57.0382 80.6046L53.5431 80.5896C53.5352 80.5894 53.5275 80.587 53.521 80.5827C53.5144 80.5783 53.5092 80.5722 53.506 80.565L52.1594 77.6075C52.1562 77.6003 52.151 77.5941 52.1445 77.5898C52.1379 77.5854 52.1302 77.583 52.1223 77.5829ZM45.5756 74.4956C47.3121 74.441 49.0583 74.5475 50.814 74.4806C50.8214 74.4803 50.8285 74.4783 50.8349 74.4746C50.8413 74.471 50.8466 74.4658 50.8506 74.4596C50.8545 74.4535 50.8568 74.4464 50.8574 74.4391C50.858 74.4318 50.8568 74.4245 50.8539 74.4178L48.1921 68.5041C48.1545 68.4213 48.1175 68.4218 48.0809 68.5055L45.5289 74.426C45.5078 74.4743 45.5234 74.4975 45.5756 74.4956Z" fill="black"/>
<path d="M62.6061 69.1296C62.6011 69.1231 62.5942 69.1183 62.5863 69.1158C62.5784 69.1134 62.57 69.1135 62.5622 69.116C62.5543 69.1186 62.5475 69.1235 62.5426 69.1301C62.5377 69.1366 62.5349 69.1446 62.5347 69.1528V80.5555C62.5347 80.5663 62.5304 80.5768 62.5227 80.5844C62.515 80.5921 62.5045 80.5964 62.4936 80.5964L59.5847 80.5951C59.538 80.5951 59.5146 80.5719 59.5146 80.5254V65.35C59.5146 65.3388 59.5169 65.3277 59.5213 65.3173C59.5256 65.307 59.532 65.2976 59.5401 65.2897C59.5481 65.2818 59.5577 65.2756 59.5681 65.2714C59.5786 65.2673 59.5898 65.2652 59.6011 65.2654L63.6769 65.2927C63.7181 65.2927 63.7506 65.3095 63.7744 65.3432L70.2593 74.3919C70.3033 74.4529 70.3252 74.4456 70.3252 74.3701V65.3678C70.3252 65.2995 70.3595 65.2654 70.4282 65.2654H73.2767C73.3224 65.2654 73.3453 65.2881 73.3453 65.3337V80.5268C73.3453 80.5741 73.3215 80.5978 73.2739 80.5978L70.9745 80.5896C70.937 80.5896 70.9073 80.5746 70.8853 80.5446L62.6061 69.1296Z" fill="black"/>
<path d="M81.7878 74.6226V77.4818C81.7878 77.53 81.8116 77.5542 81.8592 77.5542C84.7462 77.5651 87.6908 77.6962 90.5667 77.5514C90.5808 77.5505 90.5949 77.5525 90.6082 77.5573C90.6215 77.5621 90.6337 77.5696 90.644 77.5793C90.6543 77.589 90.6625 77.6008 90.6681 77.6138C90.6737 77.6269 90.6766 77.641 90.6765 77.6552V80.5431C90.6765 80.5777 90.6587 80.595 90.623 80.595L78.8391 80.5963C78.8303 80.5964 78.8217 80.5929 78.8153 80.5868C78.8089 80.5807 78.8052 80.5724 78.8048 80.5636C78.7563 75.5015 78.7591 70.4398 78.8131 65.3786C78.814 65.3204 78.8432 65.2912 78.9009 65.2912L89.4712 65.2571C89.5426 65.2562 89.5783 65.2917 89.5783 65.3636V68.2255C89.5783 68.292 89.5445 68.3257 89.4767 68.3266L81.8702 68.3716C81.8327 68.3716 81.8139 68.3899 81.8139 68.4263L81.7988 71.3456C81.7988 71.3865 81.8194 71.407 81.8606 71.407L88.918 71.4357C88.9693 71.4366 88.9949 71.4621 88.9949 71.5121V74.415C88.9949 74.4615 88.9716 74.4847 88.9249 74.4847L81.8867 74.5229C81.8603 74.5233 81.8352 74.5339 81.8167 74.5526C81.7982 74.5712 81.7878 74.5964 81.7878 74.6226Z" fill="black"/>
<path d="M94.8978 80.5459V65.3132C94.8978 65.3005 94.9029 65.2883 94.9119 65.2794C94.9209 65.2704 94.9331 65.2654 94.9459 65.2654H97.8699C97.8826 65.2654 97.8948 65.2704 97.9038 65.2794C97.9129 65.2883 97.9179 65.3005 97.9179 65.3132V77.5283C97.9179 77.541 97.923 77.5531 97.932 77.5621C97.941 77.5711 97.9532 77.5761 97.966 77.5761L106.281 77.5652C106.294 77.5652 106.306 77.5702 106.315 77.5792C106.324 77.5881 106.329 77.6003 106.329 77.613L106.325 80.5445C106.325 80.5572 106.32 80.5694 106.311 80.5783C106.302 80.5873 106.289 80.5923 106.277 80.5923L94.9459 80.5937C94.9331 80.5937 94.9209 80.5887 94.9119 80.5797C94.9029 80.5707 94.8978 80.5586 94.8978 80.5459Z" fill="black"/>
</svg>
