<svg width="18" height="20" viewBox="0 0 18 20" fill="none" xmlns="http://www.w3.org/2000/svg">
<path d="M0 4.386C0 3.902 0.345 3.509 0.771 3.509H3.436C3.965 3.493 4.432 3.11 4.612 2.544L4.642 2.444L4.757 2.053C4.827 1.813 4.888 1.603 4.974 1.416C5.312 0.677 5.938 0.164 6.661 0.033C6.845 -7.45058e-09 7.039 0 7.261 0H10.739C10.962 0 11.156 -7.45058e-09 11.339 0.033C12.062 0.164 12.689 0.677 13.026 1.416C13.112 1.603 13.173 1.812 13.244 2.053L13.358 2.444L13.388 2.544C13.568 3.11 14.128 3.494 14.658 3.509H17.228C17.655 3.509 18 3.902 18 4.386C18 4.87 17.655 5.263 17.229 5.263H0.77C0.345 5.263 0 4.87 0 4.386Z" fill="#303237"/>
<path fill-rule="evenodd" clip-rule="evenodd" d="M8.59622 20H9.40422C12.1872 20 13.5782 20 14.4842 19.114C15.3882 18.228 15.4802 16.775 15.6652 13.869L15.9322 9.681C16.0322 8.104 16.0822 7.315 15.6292 6.816C15.1752 6.316 14.4092 6.316 12.8762 6.316H5.12422C3.59122 6.316 2.82422 6.316 2.37122 6.816C1.91722 7.316 1.96722 8.104 2.06822 9.681L2.33522 13.869C2.52022 16.775 2.61222 18.229 3.51722 19.114C4.42222 20 5.81322 20 8.59622 20ZM7.24622 10.189C7.20622 9.755 6.83822 9.439 6.42622 9.482C6.01322 9.525 5.71322 9.912 5.75422 10.346L6.25422 15.609C6.29422 16.043 6.66222 16.359 7.07422 16.316C7.48722 16.273 7.78722 15.886 7.74622 15.452L7.24622 10.189ZM11.5752 9.482C11.9872 9.525 12.2882 9.912 12.2462 10.346L11.7462 15.609C11.7062 16.043 11.3372 16.359 10.9262 16.316C10.5132 16.273 10.2132 15.886 10.2542 15.452L10.7542 10.189C10.7942 9.755 11.1642 9.439 11.5752 9.482Z" fill="#303237"/>
</svg>
