<svg width="218" height="62" viewBox="0 0 218 62" fill="none" xmlns="http://www.w3.org/2000/svg">
<g clip-path="url(#clip0_477_863)">
<path d="M42.6168 47.8733V0.372803H48.8503V20.3833H74.7009V0.372803H80.9344V47.8733H74.7009V26.0258H48.8503V47.8733H42.6168ZM142.552 47.8733V0.372803H155.28C161.01 0.372803 165.231 1.20405 167.943 2.86655C171.66 5.09686 173.52 8.33464 173.52 12.5763C173.52 15.1573 172.852 17.2897 171.519 18.9736C170.184 20.6574 168.445 21.8714 166.304 22.6154V22.7471C169.191 23.4039 171.432 24.673 173.029 26.5527C174.625 28.4341 175.423 30.862 175.423 33.8346C175.423 38.5586 173.607 42.1898 169.978 44.7263C167.003 46.8249 162.06 47.875 155.15 47.875H142.554L142.552 47.8733ZM148.785 21.1042H158.168C160.749 21.1042 162.913 20.4812 164.663 19.2334C166.412 17.9875 167.286 16.1398 167.286 13.6888C167.286 11.0206 166.17 9.00925 163.94 7.65291C162.059 6.56 158.888 6.01355 154.426 6.01355H148.784V21.1042H148.785ZM148.785 42.2307H155.544C160.661 42.2307 164.182 41.5526 166.106 40.1962C168.162 38.7527 169.189 36.6754 169.189 33.9627C169.189 31.2501 168.216 29.3366 166.27 27.9589C164.323 26.5812 161.557 25.8923 157.97 25.8923H148.785V42.229V42.2307Z" fill="#010101"/>
<path d="M98.9673 11.1702C102.262 7.66183 106.42 5.90677 111.44 5.90677C116.459 5.90677 120.615 7.66183 123.912 11.1702C126.212 13.6194 127.707 16.4567 128.401 19.682C130.419 19.3652 132.482 18.9629 134.312 18.3524C133.372 14.0911 131.331 10.3567 128.186 7.15097C123.698 2.57999 118.116 0.292725 111.44 0.292725C104.763 0.292725 99.1809 2.57999 94.6936 7.15097C91.5608 10.3425 89.5245 14.0573 88.5793 18.2936C90.3967 18.9184 92.4597 19.3296 94.4835 19.6517C95.1813 16.4389 96.6747 13.6105 98.9673 11.1684V11.1702ZM128.292 28.9646C128.219 29.2636 128.139 29.5591 128.052 29.8528C129.7 30.1928 131.34 30.4153 132.84 30.1963C133.047 30.1667 133.07 30.2741 132.911 30.5185C131.279 33.0354 129.471 33.8399 126.658 33.2241C125.925 34.5733 125.014 35.8353 123.914 37.0065C120.617 40.5149 116.459 42.2699 111.441 42.2699C106.424 42.2699 102.266 40.5149 98.9691 37.0065C97.8779 35.846 96.9719 34.5947 96.2421 33.2597C93.5277 33.8043 91.7601 32.9838 90.1599 30.5185C90.0009 30.2741 90.0247 30.1667 90.2312 30.1963C91.6783 30.4064 93.2518 30.2088 94.8395 29.8884C94.7523 29.5965 94.6722 29.301 94.5992 29.002C92.3404 29.463 89.9321 29.7086 88.3301 28.5961C89.1293 33.3718 91.2511 37.5174 94.6953 41.0257C99.1827 45.5985 104.765 47.884 111.441 47.884C118.118 47.884 123.7 45.5985 128.187 41.0257C131.6 37.5494 133.712 33.4501 134.529 28.7314C132.888 29.7122 130.505 29.4274 128.292 28.9646ZM94.0617 25.3299C94.0421 24.981 94.0314 24.6286 94.0278 24.2708C91.3917 24.3509 89.4337 24.3064 87.9652 23.9718V24.0875C87.9652 24.3135 87.9688 24.5378 87.9741 24.7603C89.8289 25.4669 91.9577 25.4491 94.0634 25.3281L94.0617 25.3299ZM128.851 24.2654C128.848 24.6214 128.837 24.9721 128.817 25.3192C130.913 25.4456 133.04 25.4883 134.905 24.8333C134.91 24.5858 134.916 24.3384 134.916 24.0875V24.0127C133.433 24.3171 131.471 24.3491 128.853 24.2654H128.851Z" fill="#010101"/>
<path d="M136.201 26.5723C136.471 25.7874 136.511 24.9365 136.53 24.5111C136.543 24.2275 136.479 24.1225 136.336 24.1961C136.124 24.3064 135.699 24.5254 135.217 24.7176C135.113 24.7585 135.01 24.7977 134.907 24.8333C134.873 26.1772 134.747 27.4766 134.529 28.7314C135.261 28.2936 135.847 27.6065 136.203 26.5706L136.201 26.5723ZM113.551 32.5922C113.474 33.0746 113.46 33.2544 113.455 33.3451C113.45 33.4057 113.475 33.341 113.531 33.1511C113.615 32.8681 113.782 32.3003 113.937 31.8126C115.436 27.0636 121.119 27.4694 125.032 28.2331C125.977 28.4182 127.111 28.7172 128.292 28.9646C128.575 27.8005 128.752 26.5866 128.819 25.3192C127.509 25.2409 126.212 25.1288 125 25.1359C119.451 25.1679 114.521 26.5261 113.551 32.5922Z" fill="black"/>
<path d="M114.058 33.1528C114.037 33.2382 114.079 33.2038 114.186 33.0496C117.426 28.386 122.308 32.1685 126.4 33.1653C126.486 33.1866 126.571 33.2062 126.655 33.224C127.235 32.156 127.7 31.0329 128.05 29.8527C126.338 29.4985 124.613 29.0179 123.018 28.7705C119.158 28.1724 115.236 28.443 114.056 33.151L114.058 33.1528Z" fill="black"/>
<path d="M112.611 29.689C112.611 30.6039 112.662 31.4013 112.719 32.0528C112.778 32.7025 112.842 33.2044 112.874 33.4572C112.896 33.6245 112.917 33.5663 112.938 33.2827C113.601 24.5288 121.327 24.0037 128.513 24.2547L128.851 24.2654C128.851 24.2066 128.855 24.1479 128.855 24.0892C128.855 22.5477 128.702 21.0792 128.401 19.6837C125.927 20.0717 123.522 20.337 121.701 20.7072C116.408 21.7859 112.609 23.783 112.609 29.689H112.611ZM139.775 14.3384C139.679 14.5574 139.485 14.9953 138.995 15.5684C137.919 16.8304 136.245 17.7079 134.312 18.3523C134.707 20.1465 134.909 22.0315 134.914 24.0126C138.472 23.281 139.268 20.9689 139.741 14.8796C139.802 14.1106 139.869 14.1195 139.773 14.3384H139.775ZM84.0743 15.5684C83.5848 14.9953 83.3925 14.5574 83.2946 14.3384C83.1985 14.1195 83.2662 14.1106 83.3267 14.8796C83.793 20.8603 84.5673 23.1974 87.9635 23.9717C87.9706 21.9852 88.1753 20.0931 88.5776 18.2936C86.7193 17.6545 85.1173 16.7913 84.0725 15.5666L84.0743 15.5684ZM87.8532 24.7175C87.3708 24.5235 86.9454 24.3063 86.7335 24.196C86.5923 24.1236 86.5277 24.2286 86.5395 24.511C86.5591 24.9364 86.5983 25.7855 86.8688 26.5722C87.1892 27.5049 87.6965 28.1564 88.3284 28.5961C88.1219 27.3608 88.0027 26.0827 87.9724 24.762C87.9333 24.7477 87.8941 24.7335 87.8549 24.7175H87.8532ZM108.882 33.0496C108.989 33.2038 109.031 33.2382 109.01 33.1528C107.832 28.4448 103.909 28.1742 100.048 28.7723C98.3977 29.0286 96.6089 29.5341 94.836 29.8901C95.1884 31.0684 95.6548 32.1916 96.2386 33.2596C96.3792 33.2311 96.5199 33.2009 96.6658 33.1653C100.758 32.1685 105.64 28.386 108.88 33.0496H108.882Z" fill="black"/>
<path d="M110.131 33.2808C110.153 33.5644 110.174 33.6225 110.195 33.4552C110.227 33.2042 110.292 32.7023 110.35 32.0508C110.409 31.4011 110.459 30.6019 110.459 29.687C110.459 23.781 106.66 21.7839 101.367 20.7052C99.5014 20.3243 97.0201 20.0573 94.4818 19.6515C94.1774 21.0559 94.0226 22.5351 94.0226 24.0872C94.0226 24.1495 94.0261 24.2082 94.0261 24.2705C94.2006 24.2652 94.375 24.2599 94.5548 24.2527C101.741 24.0018 109.467 24.5251 110.13 33.2808H110.131Z" fill="black"/>
<path d="M109.134 31.8124C109.289 32.3019 109.457 32.8679 109.54 33.1509C109.596 33.3396 109.622 33.4043 109.617 33.3449C109.61 33.2541 109.597 33.0744 109.521 32.592C108.551 26.5258 103.622 25.1677 98.0719 25.1357C96.801 25.1286 95.4376 25.2496 94.0616 25.3297C94.1311 26.6059 94.3108 27.8306 94.5974 29.0018C95.8452 28.7472 97.0467 28.4269 98.0399 28.2328C101.951 27.4692 107.634 27.0634 109.134 31.8124Z" fill="black"/>
<path d="M43.2469 54.9879H43.9126V57.8287H47.485V54.9879H48.1507V61.5417H47.485V58.441H43.9126V61.5417H43.2469V54.9879ZM56.246 61.7073C54.2934 61.7073 52.8303 60.2548 52.8303 58.2648C52.8303 56.2748 54.2934 54.8223 56.246 54.8223C58.1987 54.8223 59.6618 56.2748 59.6618 58.2648C59.6618 60.2548 58.1987 61.7073 56.246 61.7073ZM56.246 55.4311C54.5622 55.4311 53.5529 56.7554 53.5529 58.263C53.5529 59.7707 54.5622 61.095 56.246 61.095C57.9299 61.095 58.9391 59.7707 58.9391 58.263C58.9391 56.7554 57.9299 55.4311 56.246 55.4311ZM69.0458 59.0978C69.0458 60.1907 68.6115 61.7073 66.6482 61.7073C64.6849 61.7073 64.2506 60.189 64.2506 59.0978V54.9879H64.9163V59.0231C64.9163 60.9116 66.148 61.0968 66.6464 61.0968C67.1448 61.0968 68.3766 60.9116 68.3766 59.0231V54.9879H69.0423V59.0978H69.0458ZM77.07 56.0701C76.7834 55.6447 76.358 55.4311 75.8026 55.4311C75.1173 55.4311 74.4053 55.7924 74.4053 56.6166C74.4053 58.3841 77.7659 57.4496 77.7659 59.8098C77.7659 61.0042 76.6463 61.7073 75.6086 61.7073C74.813 61.7073 74.044 61.4207 73.5438 60.7354L74.1455 60.3011C74.4231 60.7817 74.95 61.0968 75.6353 61.0968C76.3206 61.0968 77.0415 60.6713 77.0415 59.9024C77.0415 58.0512 73.6809 59.0783 73.6809 56.6806C73.6809 55.4133 74.7364 54.8206 75.8009 54.8206C76.5413 54.8206 77.1341 55.0235 77.652 55.6162L77.0682 56.0701H77.07ZM83.0489 60.9312H86.5573V61.5417H82.3832V54.9879H86.4469V55.5984H83.0507V57.8287H86.2262V58.4393H83.0507V60.9294L83.0489 60.9312ZM100.45 61.7073C98.4973 61.7073 97.0342 60.2548 97.0342 58.2648C97.0342 56.2748 98.4973 54.8223 100.45 54.8223C102.403 54.8223 103.866 56.2748 103.866 58.2648C103.866 60.2548 102.403 61.7073 100.45 61.7073ZM100.45 55.4311C98.7661 55.4311 97.7569 56.7554 97.7569 58.263C97.7569 59.7707 98.7661 61.095 100.45 61.095C102.134 61.095 103.143 59.7707 103.143 58.263C103.143 56.7554 102.134 55.4311 100.45 55.4311ZM109.213 61.5417H108.547V54.9879H112.5V55.5984H109.215V57.8287H112.269V58.4393H109.215V61.54L109.213 61.5417ZM123.301 54.9879H125.254C126.336 54.9879 127.365 55.3955 127.365 56.6361C127.365 57.3481 126.94 57.9035 126.208 58.0708V58.0886C127.125 58.1634 127.689 58.7739 127.689 59.7262C127.689 60.1516 127.411 61.54 125.3 61.54H123.301V54.9861V54.9879ZM123.967 57.8572H125.309C125.948 57.8572 126.642 57.551 126.642 56.7091C126.642 56.4403 126.503 55.5984 125.245 55.5984H123.967V57.8572ZM123.967 60.9294H125.245C126.208 60.9294 126.966 60.5503 126.966 59.6888C126.966 58.8273 126.393 58.4108 125.329 58.4108H123.969V60.9277L123.967 60.9294ZM133.104 60.9312H136.612V61.5417H132.438V54.9879H136.502V55.5984H133.105V57.8287H136.281V58.4393H133.105V60.9294L133.104 60.9312ZM141.448 61.5417H140.67L143.522 54.9879H144.17L147.021 61.5417H146.243L145.521 59.8205H142.171L141.448 61.5417ZM142.42 59.21H145.261L143.844 55.7675L142.418 59.21H142.42ZM155.693 59.0978C155.693 60.1907 155.259 61.7073 153.296 61.7073C151.332 61.7073 150.898 60.189 150.898 59.0978V54.9879H151.564V59.0231C151.564 60.9116 152.796 61.0968 153.294 61.0968C153.792 61.0968 155.024 60.9116 155.024 59.0231V54.9879H155.69V59.0978H155.693ZM162.843 61.5417H162.178V55.5984H159.985V54.9879H165.038V55.5984H162.845V61.5417H162.843ZM171.977 61.5417H171.311V58.7187L168.858 54.9879H169.691L171.644 58.0797L173.596 54.9879H174.429L171.977 58.7187V61.5417Z" fill="#010101"/>
</g>
<defs>
<clipPath id="clip0_477_863">
<rect width="216.553" height="61.4145" fill="white" transform="translate(0.743164 0.292725)"/>
</clipPath>
</defs>
</svg>
