<svg width="190" height="76" viewBox="0 0 190 76" fill="none" xmlns="http://www.w3.org/2000/svg">
<path d="M35.2339 21.9313C35.2376 21.9938 35.1689 22.17 35.1701 22.275C35.2276 38.01 35.2326 53.7504 35.1851 69.4963C35.1851 69.5098 35.1825 69.5233 35.1773 69.5358C35.1721 69.5483 35.1646 69.5597 35.155 69.5692C35.1455 69.5787 35.1342 69.5863 35.1217 69.5913C35.1093 69.5964 35.096 69.5989 35.0826 69.5988L33.9101 69.5825C33.8618 69.5825 33.8376 69.5584 33.8376 69.51L33.8389 20.1063C33.8389 20.0521 33.8659 20.0254 33.9201 20.0263L35.8189 20.0725C35.9101 20.0748 35.9988 20.1029 36.0747 20.1536C36.1506 20.2043 36.2105 20.2754 36.2476 20.3588L57.1514 67.9025C57.1739 67.9542 57.1964 67.9542 57.2189 67.9025L78.2476 20.085C78.2651 20.045 78.2955 20.025 78.3389 20.025L80.4964 20.0338C80.5372 20.0338 80.5576 20.0542 80.5576 20.095V69.5313C80.5576 69.5478 80.551 69.5637 80.5393 69.5755C80.5276 69.5872 80.5117 69.5938 80.4951 69.5938H79.2739C79.2255 69.5938 79.2014 69.5696 79.2014 69.5213C79.0151 53.9913 79.1501 38.4388 79.1514 22.9063C79.1514 22.6325 79.2226 22.1575 79.1476 21.7888C79.1446 21.7749 79.1374 21.7623 79.1268 21.7527C79.1163 21.7432 79.103 21.7373 79.0888 21.7358C79.0747 21.7342 79.0605 21.7372 79.0481 21.7443C79.0358 21.7513 79.026 21.7621 79.0201 21.775L57.9689 69.5963C57.953 69.6321 57.9255 69.6475 57.8864 69.6425C57.4297 69.5784 56.9709 69.5784 56.5101 69.6425C56.4889 69.6457 56.4672 69.6418 56.4485 69.6314C56.4297 69.621 56.4149 69.6047 56.4064 69.585L35.3939 21.8913C35.2714 21.6121 35.218 21.6254 35.2339 21.9313Z" fill="black"/>
<path d="M167.058 67.82L167.056 20.125C167.056 20.0834 167.078 20.0625 167.12 20.0625H168.356C168.41 20.0625 168.436 20.0892 168.436 20.1425L168.424 69.505C168.424 69.5286 168.414 69.5511 168.398 69.5678C168.381 69.5844 168.358 69.5938 168.334 69.5938H166.571C166.498 69.5938 166.426 69.5761 166.362 69.5424C166.297 69.5087 166.241 69.4599 166.199 69.4L132.334 21.6763C132.328 21.6668 132.318 21.6596 132.308 21.6558C132.297 21.652 132.285 21.6518 132.274 21.6552C132.264 21.6585 132.254 21.6653 132.248 21.6746C132.241 21.6838 132.237 21.6949 132.238 21.7063C132.239 36.9413 132.211 52.1763 132.215 67.4113C132.215 68.0738 132.254 68.8213 132.275 69.53C132.275 69.5377 132.274 69.5453 132.271 69.5524C132.268 69.5595 132.264 69.566 132.259 69.5715C132.253 69.577 132.247 69.5813 132.24 69.5843C132.233 69.5872 132.225 69.5888 132.218 69.5888L130.955 69.6038C130.9 69.6046 130.873 69.5775 130.873 69.5225L130.869 20.1275C130.869 20.0575 130.903 20.0234 130.973 20.025C131.588 20.0375 132.166 20.0538 132.706 20.0738C133.049 20.0863 133.125 20.2588 133.341 20.5638C144.472 36.2621 155.657 52.0313 166.896 67.8713C166.907 67.8867 166.923 67.8982 166.941 67.9042C166.958 67.9102 166.978 67.9104 166.996 67.9047C167.014 67.899 167.029 67.8877 167.041 67.8725C167.052 67.8572 167.058 67.8389 167.058 67.82Z" fill="black"/>
<path d="M22.0876 20.0625H20.7776C20.7597 20.0625 20.7451 20.0771 20.7451 20.095V69.56C20.7451 69.5779 20.7597 69.5925 20.7776 69.5925H22.0876C22.1056 69.5925 22.1201 69.5779 22.1201 69.56V20.095C22.1201 20.0771 22.1056 20.0625 22.0876 20.0625Z" fill="black"/>
<path d="M84.9714 69.5725C84.9636 69.5721 84.956 69.5698 84.9492 69.5659C84.9425 69.5619 84.9368 69.5564 84.9326 69.5498C84.9284 69.5431 84.9259 69.5356 84.9253 69.5278C84.9246 69.52 84.9258 69.5122 84.9289 69.505L104.999 20.1712C105.013 20.1369 105.037 20.1077 105.068 20.0872C105.099 20.0667 105.135 20.0559 105.173 20.0562L106.864 20.0787C106.906 20.0796 106.934 20.0996 106.949 20.1387C107.014 20.3196 107.081 20.4971 107.149 20.6712C113.578 36.9671 120.011 53.2604 126.448 69.5512C126.449 69.5557 126.45 69.5607 126.45 69.5655C126.449 69.5704 126.447 69.575 126.445 69.5791C126.442 69.5832 126.438 69.5865 126.434 69.5888C126.43 69.5912 126.425 69.5924 126.42 69.5925L125 69.5937C124.959 69.5937 124.931 69.5746 124.915 69.5362L118.493 53.4825C118.447 53.3691 118.363 53.3125 118.241 53.3125H93.2176C93.1774 53.3125 93.138 53.3245 93.1046 53.347C93.0712 53.3695 93.0453 53.4014 93.0301 53.4387L86.5151 69.535C86.5027 69.5661 86.481 69.5925 86.453 69.6107C86.425 69.6288 86.3921 69.6377 86.3589 69.6362L84.9714 69.5725ZM93.6701 51.86C93.6676 51.8659 93.6667 51.8724 93.6673 51.8788C93.6679 51.8852 93.6701 51.8913 93.6737 51.8966C93.6773 51.902 93.6822 51.9063 93.6879 51.9093C93.6936 51.9123 93.6999 51.9138 93.7064 51.9137L117.816 51.925C117.823 51.925 117.829 51.9235 117.834 51.9205C117.84 51.9176 117.845 51.9134 117.848 51.9082C117.852 51.9031 117.854 51.8971 117.855 51.8909C117.856 51.8847 117.855 51.8783 117.853 51.8725L105.998 21.3237C105.995 21.3167 105.99 21.3108 105.983 21.3066C105.977 21.3024 105.97 21.3002 105.962 21.3002C105.954 21.3002 105.947 21.3024 105.941 21.3066C105.934 21.3108 105.929 21.3167 105.926 21.3237L93.6701 51.86Z" fill="black"/>
</svg>
