<svg width="242" height="82" viewBox="0 0 242 82" fill="none" xmlns="http://www.w3.org/2000/svg">
<path d="M127.756 53.6855C114.666 48.7888 115.88 31.1713 129.35 27.8218C132.165 27.1201 134.989 27.3166 137.82 28.411C137.976 28.4719 138.06 28.4194 138.072 28.2535L138.116 27.6863C138.127 27.5539 138.198 27.4836 138.331 27.4752L139.141 27.4184C139.283 27.4079 139.355 27.4741 139.355 27.617V32.791C139.355 32.9485 139.276 33.0273 139.118 33.0273H138.198C138.058 33.0273 137.989 32.9569 137.994 32.8162L138.075 30.8027C138.08 30.7081 138.042 30.6357 137.962 30.5852C129.334 25.26 119.591 33.7426 121.277 43.1547C122.629 50.7141 130.27 55.1066 137.464 52.0029C138.334 51.6279 139.226 50.9851 140.098 50.4778C140.275 50.3769 140.438 50.3937 140.587 50.5282C141.123 51.0134 140.902 51.3695 140.41 51.7476C136.518 54.7411 132.3 55.3871 127.756 53.6855Z" fill="#1F191A"/>
<path d="M188.294 41.0361C188.281 44.6246 186.775 48.0609 184.106 50.5891C181.437 53.1173 177.825 54.5302 174.064 54.5171C170.302 54.504 166.7 53.0658 164.049 50.5191C161.398 47.9724 159.916 44.5256 159.928 40.9371C159.941 37.3486 161.447 33.9123 164.115 31.3841C166.784 28.856 170.397 27.443 174.158 27.4561C177.92 27.4693 181.522 28.9074 184.173 31.4541C186.824 34.0009 188.306 37.4476 188.294 41.0361ZM174.301 53.0123C175.82 52.9858 177.318 52.6491 178.71 52.0214C180.103 51.3936 181.362 50.4872 182.416 49.3538C183.47 48.2204 184.299 46.8823 184.854 45.4158C185.41 43.9493 185.682 42.3832 185.654 40.8069C185.599 37.6233 184.327 34.5914 182.12 32.3781C179.912 30.1648 176.949 28.9515 173.882 29.005C172.364 29.0315 170.866 29.3683 169.474 29.996C168.081 30.6237 166.822 31.5302 165.768 32.6635C164.714 33.7969 163.885 35.1351 163.329 36.6015C162.774 38.068 162.502 39.6342 162.529 41.2105C162.585 44.3941 163.856 47.426 166.064 49.6392C168.272 51.8525 171.235 53.0658 174.301 53.0123Z" fill="#1F191A"/>
<path d="M218.553 40.9868C218.553 44.5762 217.06 48.0186 214.401 50.5566C211.742 53.0947 208.136 54.5206 204.377 54.5206C200.617 54.5206 197.011 53.0947 194.352 50.5566C191.694 48.0186 190.2 44.5762 190.2 40.9868C190.2 37.3975 191.694 33.9551 194.352 31.4171C197.011 28.879 200.617 27.4531 204.377 27.4531C208.136 27.4531 211.742 28.879 214.401 31.4171C217.06 33.9551 218.553 37.3975 218.553 40.9868ZM205.41 52.9327C208.464 52.671 211.284 51.1613 213.251 48.736C215.218 46.3106 216.17 43.1681 215.899 39.9999C215.764 38.4311 215.333 36.9033 214.63 35.5035C213.928 34.1038 212.967 32.8596 211.803 31.8419C210.638 30.8243 209.294 30.0532 207.846 29.5726C206.397 29.092 204.874 28.9114 203.362 29.041C200.309 29.3027 197.488 30.8123 195.521 33.2377C193.554 35.6631 192.602 38.8056 192.873 41.9738C193.008 43.5426 193.439 45.0704 194.142 46.4702C194.845 47.8699 195.805 49.1141 196.97 50.1318C198.134 51.1494 199.478 51.9205 200.927 52.4011C202.375 52.8817 203.898 53.0623 205.41 52.9327Z" fill="#1F191A"/>
<path d="M54.2987 52.9576H55.1243C55.1711 52.9576 55.216 52.9762 55.2491 53.0093C55.2822 53.0423 55.3007 53.0872 55.3007 53.134V53.988C55.3007 54.0348 55.2822 54.0796 55.2491 54.1127C55.216 54.1458 55.1711 54.1644 55.1243 54.1644L51.3147 54.1329C51.2695 54.1321 51.2263 54.114 51.1941 54.0824C51.1618 54.0507 51.143 54.0079 51.1414 53.9628L51.1225 53.1372C51.122 53.1137 51.1263 53.0905 51.135 53.0687C51.1437 53.0469 51.1566 53.0271 51.173 53.0104C51.1894 52.9936 51.209 52.9804 51.2307 52.9713C51.2523 52.9622 51.2755 52.9576 51.2989 52.9576H52.3671C52.4139 52.9576 52.4588 52.939 52.4919 52.9059C52.525 52.8728 52.5436 52.8279 52.5436 52.7811V29.1861C52.5436 29.1393 52.525 29.0944 52.4919 29.0613C52.4588 29.0282 52.4139 29.0097 52.3671 29.0097H51.3115C51.2878 29.0097 51.2643 29.0049 51.2425 28.9956C51.2207 28.9864 51.2009 28.9728 51.1845 28.9558C51.168 28.9387 51.1551 28.9185 51.1466 28.8964C51.1382 28.8742 51.1342 28.8506 51.1351 28.8269L51.1666 27.9982C51.1682 27.9525 51.1875 27.9092 51.2204 27.8774C51.2534 27.8457 51.2973 27.828 51.343 27.828H54.179C54.2138 27.8277 54.248 27.8377 54.2771 27.8568C54.3063 27.8758 54.3291 27.9031 54.3428 27.9351L60.0368 41.2641C60.0506 41.2957 60.0735 41.3226 60.1026 41.3414C60.1316 41.3601 60.1655 41.37 60.2001 41.3696C60.2347 41.3693 60.2684 41.3588 60.297 41.3395C60.3257 41.3202 60.348 41.2928 60.3613 41.2609L65.7086 27.8186C65.7224 27.7844 65.7465 27.7554 65.7776 27.7356C65.8087 27.7158 65.8452 27.7063 65.8819 27.7083L69.0078 27.8343C69.0508 27.8365 69.0916 27.8544 69.1223 27.8846C69.1531 27.9148 69.1718 27.9552 69.1748 27.9982L69.2283 28.8206C69.2301 28.8448 69.2268 28.8691 69.2187 28.892C69.2106 28.9149 69.1979 28.9358 69.1813 28.9536C69.1648 28.9713 69.1447 28.9855 69.1225 28.9951C69.1002 29.0048 69.0762 29.0097 69.0519 29.0097H68.2389C68.1921 29.0097 68.1472 29.0282 68.1141 29.0613C68.0811 29.0944 68.0625 29.1393 68.0625 29.1861V52.7811C68.0625 52.8279 68.0811 52.8728 68.1141 52.9059C68.1472 52.939 68.1921 52.9576 68.2389 52.9576H68.9826C69.0288 52.9576 69.0732 52.9757 69.1062 53.0081C69.1392 53.0405 69.1582 53.0846 69.159 53.1309L69.1685 53.9596C69.1689 53.983 69.1646 54.0063 69.156 54.0281C69.1473 54.0499 69.1344 54.0697 69.1179 54.0864C69.1015 54.1031 69.0819 54.1164 69.0603 54.1255C69.0387 54.1346 69.0155 54.1392 68.992 54.1392H64.193C64.1678 54.139 64.1429 54.1334 64.1201 54.1228C64.0972 54.1122 64.0769 54.0969 64.0605 54.0778C64.0441 54.0587 64.0319 54.0363 64.0249 54.0121C64.0179 53.9879 64.0161 53.9625 64.0197 53.9375L64.13 53.1088C64.1361 53.0665 64.1573 53.0279 64.1898 53C64.2222 52.9722 64.2637 52.9571 64.3064 52.9576H65.2045C65.2513 52.9576 65.2961 52.939 65.3292 52.9059C65.3623 52.8728 65.3809 52.8279 65.3809 52.7811L65.3904 33.6133C65.3905 33.5723 65.3764 33.5324 65.3503 33.5007C65.3242 33.4689 65.2879 33.4473 65.2476 33.4394C65.2073 33.4316 65.1655 33.4381 65.1294 33.4577C65.0934 33.4774 65.0653 33.509 65.0501 33.5472L59.9422 46.4349C59.9295 46.4678 59.9071 46.4961 59.8781 46.5162C59.8491 46.5362 59.8147 46.5471 59.7794 46.5475C59.7442 46.5478 59.7096 46.5376 59.6802 46.5181C59.6508 46.4986 59.6279 46.4707 59.6145 46.4381L54.4531 34.1616C54.4378 34.1232 54.4095 34.0914 54.3731 34.0717C54.3367 34.0521 54.2945 34.0458 54.254 34.0541C54.2135 34.0623 54.1771 34.0846 54.1513 34.1169C54.1255 34.1492 54.1119 34.1896 54.1128 34.2309L54.1223 52.7811C54.1223 52.8279 54.1408 52.8728 54.1739 52.9059C54.207 52.939 54.2519 52.9576 54.2987 52.9576Z" fill="#1F191A"/>
<path d="M86.3764 33.3833L81.1834 46.5232C81.1733 46.5508 81.155 46.5746 81.131 46.5916C81.107 46.6086 81.0784 46.6179 81.049 46.6182C81.0196 46.6186 80.9908 46.6099 80.9664 46.5935C80.942 46.5771 80.9232 46.5537 80.9124 46.5263L75.666 33.9978C75.6525 33.9676 75.6292 33.943 75.5998 33.9279C75.5705 33.9128 75.5369 33.9082 75.5046 33.9148C75.4722 33.9214 75.4431 33.9389 75.4221 33.9643C75.401 33.9897 75.3892 34.0215 75.3887 34.0545V52.8126C75.3887 52.8511 75.4039 52.8879 75.4311 52.9151C75.4583 52.9423 75.4952 52.9576 75.5336 52.9576H76.501C76.5394 52.9576 76.5763 52.9729 76.6035 53C76.6307 53.0272 76.6459 53.0641 76.6459 53.1025V54.0006C76.6459 54.039 76.6307 54.0759 76.6035 54.1031C76.5763 54.1302 76.5394 54.1455 76.501 54.1455L72.5716 54.1361C72.5515 54.1361 72.5316 54.132 72.5131 54.124C72.4946 54.1159 72.4781 54.1041 72.4644 54.0893C72.4508 54.0744 72.4404 54.0569 72.4339 54.0379C72.4274 54.0188 72.4249 53.9986 72.4267 53.9785L72.4992 53.0899C72.5023 53.0542 72.5185 53.021 72.5447 52.9965C72.5709 52.9721 72.6052 52.9582 72.641 52.9576H73.6682C73.7066 52.9576 73.7435 52.9423 73.7707 52.9151C73.7979 52.8879 73.8132 52.8511 73.8132 52.8126V29.1546C73.8132 29.1162 73.7979 29.0793 73.7707 29.0521C73.7435 29.0249 73.7066 29.0097 73.6682 29.0097H72.6189C72.5999 29.0097 72.581 29.0059 72.5634 28.9986C72.5459 28.9913 72.5299 28.9807 72.5164 28.9672C72.503 28.9538 72.4923 28.9378 72.485 28.9202C72.4777 28.9026 72.474 28.8838 72.474 28.8647V27.9824C72.474 27.944 72.4892 27.9071 72.5164 27.8799C72.5436 27.8528 72.5805 27.8375 72.6189 27.8375L75.458 27.8123C75.4868 27.8119 75.5151 27.82 75.5392 27.8357C75.5633 27.8515 75.5822 27.874 75.5935 27.9005L81.3378 41.3239C81.3491 41.3503 81.368 41.3727 81.392 41.3884C81.416 41.404 81.4441 41.4122 81.4728 41.4119C81.5015 41.4115 81.5294 41.4027 81.5531 41.3865C81.5767 41.3703 81.595 41.3474 81.6057 41.3208L86.9309 27.9194C86.9417 27.8923 86.9604 27.8691 86.9846 27.8528C87.0088 27.8365 87.0373 27.8279 87.0664 27.828H90.29C90.3284 27.828 90.3653 27.8433 90.3924 27.8705C90.4196 27.8977 90.4349 27.9345 90.4349 27.973V28.8647C90.4349 28.8838 90.4312 28.9026 90.4239 28.9202C90.4166 28.9378 90.4059 28.9538 90.3924 28.9672C90.379 28.9807 90.363 28.9913 90.3454 28.9986C90.3278 29.0059 90.309 29.0097 90.29 29.0097H89.3982C89.3598 29.0097 89.3229 29.0249 89.2957 29.0521C89.2685 29.0793 89.2533 29.1162 89.2533 29.1546V52.8063C89.2533 52.8442 89.2681 52.8806 89.2946 52.9077C89.3211 52.9348 89.3572 52.9505 89.3951 52.9513L90.2931 52.9607C90.331 52.9616 90.3671 52.9772 90.3936 53.0043C90.4201 53.0314 90.4349 53.0678 90.4349 53.1057V53.9943C90.4349 54.0327 90.4196 54.0696 90.3924 54.0968C90.3653 54.124 90.3284 54.1392 90.29 54.1392H85.5728C85.5355 54.1393 85.4995 54.1249 85.4725 54.099C85.4455 54.0732 85.4295 54.0379 85.4279 54.0006L85.3806 53.1151C85.3793 53.0953 85.3821 53.0755 85.3888 53.0568C85.3955 53.0381 85.406 53.0209 85.4196 53.0065C85.4332 52.992 85.4496 52.9805 85.4678 52.9726C85.4861 52.9647 85.5057 52.9607 85.5256 52.9607L86.5118 52.9513C86.5497 52.9505 86.5858 52.9348 86.6123 52.9077C86.6388 52.8806 86.6537 52.8442 86.6536 52.8063L86.6568 33.4369C86.6573 33.4028 86.6458 33.3696 86.6242 33.3432C86.6027 33.3168 86.5725 33.2988 86.5391 33.2924C86.5056 33.286 86.4709 33.2916 86.4412 33.3082C86.4114 33.3249 86.3885 33.3514 86.3764 33.3833Z" fill="#1F191A"/>
<path d="M106.543 29.0538L105.856 28.9719C105.825 28.9679 105.795 28.9577 105.768 28.942C105.741 28.9263 105.717 28.9054 105.698 28.8805C105.493 28.599 105.452 28.285 105.576 27.9384C105.622 27.8102 105.713 27.7472 105.85 27.7493L109.426 27.8092C109.601 27.8113 109.682 27.8995 109.672 28.0739L109.622 28.8018C109.611 28.9404 109.536 29.0097 109.398 29.0097H108.632C108.508 29.0097 108.424 29.0665 108.38 29.1799C106.786 33.1628 105.197 37.1447 103.616 41.1255C103.397 41.6738 103.287 42.2431 103.285 42.8334C103.266 46.1525 103.266 49.4705 103.285 52.7875C103.285 52.8134 103.29 52.8391 103.3 52.863C103.31 52.8869 103.325 52.9086 103.343 52.9268C103.362 52.9449 103.384 52.9593 103.408 52.9689C103.432 52.9785 103.457 52.9833 103.483 52.9829L104.807 52.9482C104.899 52.944 104.953 52.9892 104.967 53.0837L105.084 53.8494C105.113 54.0427 105.03 54.1393 104.835 54.1393H99.2578C99.2074 54.1392 99.1578 54.1269 99.1133 54.1032C99.0688 54.0796 99.0308 54.0455 99.0025 54.0038C98.8156 53.7307 98.7925 53.4524 98.9332 53.1688C98.9628 53.1097 99.0081 53.0597 99.0641 53.0242C99.1202 52.9887 99.1849 52.969 99.2515 52.9671L100.276 52.9419C100.34 52.9403 100.402 52.9133 100.448 52.8668C100.493 52.8203 100.518 52.7579 100.518 52.693C100.518 49.3739 100.518 46.06 100.518 42.7514C100.518 42.2641 100.411 41.8019 100.197 41.365C98.2116 37.3033 96.2202 33.2479 94.2571 29.183C94.2024 29.0696 94.1121 29.0129 93.9861 29.0129L93.066 29.0034C93.0387 29.0032 93.0118 28.9972 92.9871 28.9858C92.9623 28.9744 92.9403 28.9579 92.9224 28.9374C92.9045 28.9168 92.8912 28.8927 92.8834 28.8666C92.8755 28.8405 92.8733 28.813 92.8769 28.786L92.9809 28.0392C92.9998 27.8985 93.0796 27.8281 93.2204 27.8281H97.9973C98.1024 27.8281 98.1549 27.8806 98.1549 27.9856V28.8585C98.1549 28.9698 98.1003 29.0223 97.991 29.016L97.219 28.9814C97.0237 28.973 96.9701 29.0559 97.0583 29.2303L102.258 39.6287C102.273 39.6604 102.298 39.6869 102.329 39.7048C102.359 39.7227 102.394 39.7314 102.43 39.7297C102.465 39.728 102.499 39.7161 102.528 39.6954C102.557 39.6747 102.579 39.646 102.592 39.613L106.685 29.2933C106.695 29.268 106.699 29.2408 106.697 29.2138C106.695 29.1867 106.686 29.1606 106.673 29.1374C106.659 29.1142 106.64 29.0946 106.618 29.0801C106.595 29.0656 106.57 29.0566 106.543 29.0538Z" fill="#1F191A"/>
<path d="M37.8912 29.1734C37.8849 34.6835 37.8828 40.1936 37.8849 45.7037C37.8881 48.5208 37.3146 51.3378 34.9891 53.0772C30.4957 56.433 24.1054 53.7357 23.5288 48.1269C23.5266 48.1099 23.5278 48.0927 23.5323 48.0761C23.5368 48.0596 23.5446 48.0442 23.5552 48.0307C23.5657 48.0172 23.5789 48.0059 23.5938 47.9976C23.6087 47.9892 23.6252 47.9839 23.6422 47.9819L25.8448 47.6952C25.8825 47.6903 25.9208 47.6935 25.9571 47.7047C25.9935 47.7159 26.0271 47.7348 26.0557 47.7602C26.0843 47.7855 26.1073 47.8167 26.1231 47.8517C26.1388 47.8866 26.1471 47.9246 26.1473 47.963C26.1694 53.137 32.7109 55.2955 34.7307 50.0175C34.9975 49.3201 35.132 48.0586 35.1341 46.2331C35.1362 40.5675 35.1362 34.902 35.1341 29.2364C35.1341 29.1762 35.1098 29.1185 35.0667 29.076C35.0236 29.0334 34.965 29.0095 34.904 29.0095H34.0375C34.0072 29.0095 33.9771 29.0035 33.9492 28.9919C33.9213 28.9802 33.896 28.9632 33.8748 28.9418C33.8537 28.9203 33.8371 28.8949 33.8261 28.867C33.815 28.8392 33.8098 28.8094 33.8106 28.7795L33.8201 28.0516C33.8222 27.9025 33.8978 27.8279 34.047 27.8279H38.887C39.0277 27.8279 39.0907 27.8983 39.076 28.039L39.0004 28.8205C38.9878 28.9465 38.9174 29.0095 38.7893 29.0095H38.0519C37.9448 29.0095 37.8912 29.0641 37.8912 29.1734Z" fill="#1F191A"/>
<path d="M46.6291 52.9574H47.4484C47.5849 52.9574 47.6532 53.0247 47.6532 53.1591L47.6627 53.9374C47.6627 54.0677 47.5975 54.1328 47.4673 54.1328L42.7313 54.1548C42.5989 54.1548 42.5359 54.0887 42.5422 53.9563L42.58 53.1717C42.5863 53.0331 42.6588 52.9627 42.7975 52.9606L43.5978 52.9511C43.6516 52.9503 43.7029 52.9284 43.7406 52.89C43.7783 52.8517 43.7995 52.8001 43.7995 52.7463V29.1671C43.7995 29.062 43.747 29.0095 43.6419 29.0095H42.8164C42.6504 29.0095 42.5643 28.9255 42.558 28.7574L42.5328 28.0327C42.5265 27.8962 42.5916 27.8279 42.7281 27.8279H47.4484C47.5807 27.8279 47.649 27.8951 47.6532 28.0295L47.6627 28.5369C47.664 28.6154 47.6473 28.6933 47.6139 28.7643C47.5804 28.8354 47.5311 28.8977 47.4698 28.9465C47.4085 28.9953 47.3369 29.0292 47.2605 29.0456C47.1841 29.062 47.105 29.0605 47.0293 29.041C46.8213 28.9864 46.6606 28.9885 46.5472 29.0473C46.4506 29.0956 46.4022 29.2112 46.4022 29.3939C46.398 37.1434 46.397 44.9212 46.3991 52.7274C46.3991 52.7884 46.4233 52.8469 46.4665 52.8901C46.5096 52.9332 46.5681 52.9574 46.6291 52.9574Z" fill="#1F191A"/>
<path d="M147.116 52.9511L147.907 52.9606C147.934 52.961 147.96 52.9668 147.985 52.9777C148.01 52.9886 148.032 53.0044 148.051 53.0241C148.069 53.0438 148.084 53.067 148.093 53.0924C148.102 53.1177 148.106 53.1447 148.105 53.1717L148.067 53.9469C148.065 53.9987 148.043 54.0476 148.005 54.0834C147.968 54.1192 147.918 54.1391 147.866 54.1391H143.183C143.131 54.1391 143.081 54.1187 143.043 54.0823C143.005 54.0458 142.983 53.9961 142.982 53.9437L142.956 53.2978C142.954 53.2492 142.969 53.2013 142.999 53.1631C143.03 53.1249 143.072 53.0988 143.12 53.0898L144.075 52.9007C144.121 52.8919 144.163 52.8672 144.193 52.831C144.223 52.7948 144.239 52.7492 144.239 52.7022V29.1797C144.239 29.1524 144.233 29.1254 144.223 29.1003C144.212 29.0752 144.196 29.0525 144.177 29.0336C144.157 29.0148 144.133 29.0001 144.108 28.9906C144.082 28.981 144.055 28.9767 144.028 28.978L143.133 29.0253C143.106 29.0265 143.079 29.0225 143.054 29.0133C143.029 29.0041 143.006 28.99 142.986 28.9718C142.967 28.9537 142.951 28.9317 142.94 28.9074C142.929 28.883 142.923 28.8567 142.922 28.8299L142.89 28.0359C142.889 28.0088 142.894 27.9819 142.904 27.9567C142.913 27.9315 142.928 27.9086 142.947 27.8892C142.966 27.8698 142.988 27.8543 143.013 27.8438C143.038 27.8333 143.065 27.8279 143.092 27.8279H147.897C147.951 27.8279 148.002 27.8491 148.04 27.8869C148.078 27.9248 148.099 27.9761 148.099 28.0295V28.8079C148.099 28.8613 148.078 28.9126 148.04 28.9505C148.002 28.9883 147.951 29.0095 147.897 29.0095H147.119C147.065 29.0095 147.014 29.0308 146.976 29.0686C146.939 29.1064 146.917 29.1577 146.917 29.2112V34.6373C146.917 34.6908 146.939 34.7421 146.976 34.7799C147.014 34.8177 147.065 34.8389 147.119 34.8389H154.373C154.426 34.8389 154.477 34.8177 154.515 34.7799C154.553 34.7421 154.574 34.6908 154.574 34.6373L154.571 29.2112C154.571 29.1577 154.55 29.1064 154.512 29.0686C154.474 29.0308 154.423 29.0095 154.369 29.0095H153.503C153.45 29.0095 153.399 28.9887 153.361 28.9516C153.324 28.9144 153.302 28.8639 153.301 28.811L153.298 28.0327C153.298 28.0059 153.303 27.9794 153.313 27.9546C153.323 27.9297 153.337 27.9071 153.356 27.8881C153.375 27.869 153.397 27.8539 153.422 27.8435C153.447 27.8332 153.473 27.8279 153.5 27.8279H158.296C158.349 27.8279 158.4 27.8491 158.438 27.8869C158.476 27.9248 158.497 27.9761 158.497 28.0295V28.8079C158.497 28.8613 158.476 28.9126 158.438 28.9505C158.4 28.9883 158.349 29.0095 158.296 29.0095H157.517C157.464 29.0095 157.413 29.0308 157.375 29.0686C157.337 29.1064 157.316 29.1577 157.316 29.2112V52.7558C157.316 52.8093 157.337 52.8605 157.375 52.8984C157.413 52.9362 157.464 52.9574 157.517 52.9574H158.293C158.345 52.9574 158.396 52.9782 158.434 53.0154C158.472 53.0525 158.493 53.103 158.494 53.156L158.497 53.9343C158.498 53.961 158.493 53.9876 158.483 54.0124C158.473 54.0372 158.458 54.0598 158.439 54.0789C158.421 54.098 158.398 54.1131 158.374 54.1234C158.349 54.1338 158.322 54.1391 158.296 54.1391H153.519C153.466 54.1391 153.416 54.1187 153.378 54.0823C153.341 54.0458 153.319 53.9961 153.317 53.9437L153.289 53.156C153.287 53.1276 153.292 53.0993 153.302 53.0728C153.313 53.0463 153.328 53.0224 153.349 53.0024C153.369 52.9825 153.393 52.9671 153.42 52.9571C153.446 52.9472 153.475 52.943 153.503 52.9448L154.385 53.0016C154.413 53.0033 154.44 52.9993 154.466 52.99C154.492 52.9806 154.516 52.966 154.536 52.9471C154.556 52.9282 154.572 52.9054 154.583 52.8801C154.594 52.8548 154.6 52.8275 154.6 52.7999L154.549 36.5374C154.549 36.4839 154.528 36.4326 154.49 36.3948C154.452 36.3569 154.401 36.3357 154.347 36.3357H147.119C147.065 36.3357 147.014 36.3569 146.976 36.3948C146.939 36.4326 146.917 36.4839 146.917 36.5374V52.7495C146.917 52.8024 146.938 52.8532 146.975 52.891C147.012 52.9287 147.063 52.9503 147.116 52.9511Z" fill="#1F191A"/>
</svg>
