<svg width="276" height="48" viewBox="0 0 276 48" fill="none" xmlns="http://www.w3.org/2000/svg">
<path d="M5.11541 13.2409C5.12034 13.2404 5.12501 13.2384 5.12884 13.2352C5.13268 13.2321 5.13551 13.2279 5.13701 13.2232C5.1385 13.2184 5.1386 13.2134 5.13727 13.2086C5.13594 13.2038 5.13325 13.1995 5.12953 13.1962C4.72214 12.8391 4.26974 12.4655 3.92904 12.0831C3.47324 11.5719 3.14525 10.9845 2.94506 10.3208C2.94365 10.3161 2.94409 10.311 2.94628 10.3065C2.94847 10.3021 2.95226 10.2986 2.95688 10.2968C3.94842 9.90686 4.96033 9.53331 6.03697 9.75639C6.06281 9.76165 6.07661 9.76384 6.07836 9.76296C6.11582 9.74588 6.1191 9.72365 6.08822 9.69627C5.9752 9.59639 5.88452 9.45873 5.79812 9.36576C5.09635 8.61274 4.6238 7.73947 4.38046 6.74596C4.16756 5.87729 3.99508 4.92157 4.13307 4.02563C4.1339 4.02023 4.13582 4.01508 4.13871 4.0105C4.14159 4.00593 4.14537 4.00202 4.14982 3.99902C4.18049 3.97821 4.21881 3.96288 4.26481 3.95302C5.1338 3.7674 5.92888 3.79335 6.80346 3.89356C7.77955 4.00592 8.64461 4.31278 9.46005 4.86703C9.65586 4.99998 9.85704 5.13041 10.0636 5.25832C10.0677 5.26086 10.0725 5.26206 10.0774 5.26177C10.0822 5.26148 10.0868 5.25971 10.0906 5.2567C10.0944 5.25369 10.0972 5.24958 10.0986 5.24493C10.1 5.24029 10.0999 5.23533 10.0984 5.23072C9.9338 4.75171 9.88025 4.27237 9.92855 3.75426C9.98079 3.19343 10.1178 2.63885 10.2561 2.09052C10.2629 2.06336 10.2801 2.05241 10.3077 2.05766C11.1261 2.21208 11.8187 2.54621 12.4547 3.07089C12.7749 3.33482 13.0843 3.60564 13.3828 3.88337C13.3878 3.88798 13.3939 3.89103 13.4006 3.89213C13.4073 3.89323 13.4141 3.89234 13.4202 3.88956C13.4264 3.88679 13.4316 3.88225 13.4352 3.87653C13.4387 3.87081 13.4405 3.86416 13.4403 3.85742C13.419 3.22267 13.4495 2.52945 13.622 1.92362C13.7045 1.63286 13.8655 1.27606 13.9847 0.955733C13.9882 0.946593 13.9949 0.939007 14.0034 0.934362C14.012 0.929717 14.0219 0.928323 14.0314 0.930436C15.0062 1.13939 15.816 1.63647 16.5536 2.29389C16.6618 2.39048 16.7586 2.49703 16.844 2.61356C17.1459 3.02599 17.4008 3.46558 17.6089 3.93233C17.6103 3.93552 17.6111 3.93896 17.6112 3.94245C17.6113 3.94595 17.6107 3.94943 17.6094 3.95269C17.6082 3.95596 17.6063 3.95894 17.6039 3.96148C17.6015 3.96402 17.5986 3.96606 17.5954 3.96748C14.3629 5.41372 11.5062 7.57356 9.26621 10.3235C9.13282 10.4873 9.00283 10.6632 8.87623 10.8511C8.07546 12.0406 7.32682 13.262 6.63031 14.5153C6.21679 15.2594 5.89701 16.041 5.67097 16.8601C5.62563 17.0244 5.57865 17.163 5.52378 17.3102C5.52124 17.3173 5.51607 17.3231 5.50934 17.3265C5.50261 17.3299 5.49484 17.3305 5.48764 17.3283C5.07894 17.2059 4.68852 17.0416 4.31639 16.8355C4.04272 16.684 3.81307 16.4429 3.59656 16.2195C3.00354 15.6067 2.56033 15.0072 2.27319 14.1865C2.26936 14.1754 2.26964 14.1633 2.27399 14.1525C2.27833 14.1416 2.28645 14.1327 2.29684 14.1273C2.62177 13.9581 2.97594 13.7446 3.28576 13.6237C3.85808 13.3996 4.5099 13.301 5.11541 13.2409ZM7.7421 6.54259C7.7421 6.44681 7.72324 6.35197 7.68658 6.26348C7.64993 6.17499 7.5962 6.09458 7.52847 6.02685C7.46075 5.95913 7.38034 5.9054 7.29185 5.86875C7.20336 5.83209 7.10852 5.81323 7.01274 5.81323C6.8193 5.81323 6.63378 5.89007 6.497 6.02685C6.36022 6.16364 6.28337 6.34915 6.28337 6.54259C6.28337 6.73603 6.36022 6.92155 6.497 7.05833C6.63378 7.19511 6.8193 7.27196 7.01274 7.27196C7.10852 7.27196 7.20336 7.25309 7.29185 7.21644C7.38034 7.17978 7.46075 7.12606 7.52847 7.05833C7.5962 6.9906 7.64993 6.9102 7.68658 6.82171C7.72324 6.73322 7.7421 6.63837 7.7421 6.54259ZM8.94851 7.82325C8.94851 7.69159 8.89621 7.56532 8.80311 7.47222C8.71001 7.37912 8.58374 7.32682 8.45208 7.32682C8.32042 7.32682 8.19415 7.37912 8.10105 7.47222C8.00796 7.56532 7.95565 7.69159 7.95565 7.82325C7.95565 7.95491 8.00796 8.08118 8.10105 8.17428C8.19415 8.26737 8.32042 8.31968 8.45208 8.31968C8.58374 8.31968 8.71001 8.26737 8.80311 8.17428C8.89621 8.08118 8.94851 7.95491 8.94851 7.82325Z" fill="#303237"/>
<path d="M25.3901 33.7643C25.3915 33.7678 25.394 33.7709 25.3971 33.773C25.4003 33.7751 25.4041 33.7763 25.4079 33.7762C25.4117 33.7762 25.4155 33.775 25.4186 33.7728C25.4218 33.7706 25.4242 33.7675 25.4255 33.764L32.0611 16.4386C32.0633 16.4328 32.0672 16.4278 32.0723 16.4243C32.0774 16.4208 32.0835 16.4189 32.0897 16.4189H39.4497C39.454 16.4189 39.4582 16.4206 39.4613 16.4237C39.4644 16.4268 39.4661 16.431 39.4661 16.4353V17.4952C39.4662 17.5037 39.463 17.512 39.4572 17.5183C39.4514 17.5246 39.4435 17.5286 39.4349 17.5294L36.5345 17.8024C36.5279 17.803 36.5218 17.8061 36.5173 17.8109C36.5128 17.8158 36.5103 17.8221 36.5102 17.8287C36.4481 24.5171 36.4504 31.2128 36.5092 37.901C36.5095 37.9286 36.5233 37.9437 36.5506 37.9463L39.3423 38.2095C39.3519 38.2104 39.3617 38.2089 39.3706 38.2052C39.3796 38.2015 39.3874 38.1956 39.3935 38.1881C40.0966 37.3306 40.767 36.4485 41.4048 35.5417C41.4078 35.5374 41.4116 35.5338 41.4159 35.531C41.4203 35.5282 41.4252 35.5263 41.4303 35.5255C41.4354 35.5246 41.4406 35.5247 41.4457 35.5259C41.4507 35.527 41.4555 35.5292 41.4597 35.5322L42.3202 36.1456C42.3316 36.1537 42.3337 36.1637 42.3267 36.1758C40.6709 39.062 38.5873 41.8145 35.8407 43.7533C32.4241 46.1648 28.3851 46.9543 24.2632 46.8133C21.7909 46.7289 19.3094 46.2561 17.0372 45.2872C14.4949 44.2034 12.158 42.582 10.3139 40.5198C6.1756 35.8922 4.56706 29.5287 5.10883 23.4415C5.56386 18.33 7.5614 13.5593 11.0584 9.78991C15.4415 5.0658 21.9177 2.93192 28.2714 3.56305C28.7635 3.61211 29.2512 3.68987 29.7344 3.79631C31.0761 4.092 32.3926 4.50071 33.6559 5.04149C34.5607 5.42851 35.3265 5.83065 35.9832 6.13586C36.2871 6.27713 36.6577 6.39015 36.9948 6.35828C38.3918 6.22588 39.0955 4.66662 39.357 3.4934C39.3593 3.4834 39.3649 3.47447 39.3729 3.46808C39.3809 3.46169 39.3908 3.45822 39.4011 3.45824L40.4425 3.45759C40.4533 3.45759 40.4591 3.46284 40.46 3.47336L41.4269 17.5189C41.4271 17.5221 41.4266 17.5254 41.4256 17.5284C41.4245 17.5315 41.4228 17.5343 41.4205 17.5367C41.4183 17.539 41.4156 17.5409 41.4127 17.5422C41.4097 17.5435 41.4065 17.5442 41.4032 17.5442H40.4843C40.4785 17.5441 40.473 17.5424 40.4683 17.5392C40.4636 17.536 40.46 17.5314 40.458 17.5261C40.433 17.4615 40.4116 17.3992 40.3936 17.3391C39.7237 15.1067 38.7788 12.9416 37.4344 11.0417C35.8916 8.86145 33.8198 7.21512 31.2851 6.35796C29.6697 5.81192 27.8952 5.59048 26.1828 5.64305C24.6752 5.68937 23.2007 5.92625 21.8083 6.41545C19.5324 7.21578 17.6533 8.56532 16.1712 10.4641C14.7936 12.2287 13.8471 14.2486 13.1969 16.3933C13.196 16.3962 13.1957 16.3993 13.1962 16.4024C13.1967 16.4054 13.1979 16.4083 13.1998 16.4108C13.2016 16.4133 13.204 16.4153 13.2067 16.4167C13.2095 16.4182 13.2125 16.4189 13.2156 16.4189H18.538C18.5464 16.4189 18.5547 16.4214 18.5616 16.4262C18.5686 16.4309 18.574 16.4377 18.5771 16.4455L25.3901 33.7643ZM14.1664 36.2658L14.2761 17.9653C14.2764 17.938 14.2629 17.9225 14.2357 17.919L12.8536 17.7498C12.844 17.7487 12.8344 17.7511 12.8265 17.7566C12.8186 17.7621 12.813 17.7704 12.8108 17.7797C12.0486 21.0402 11.8508 24.4636 12.0401 27.8026C12.2037 30.6875 12.8164 33.5014 14.0724 36.1137C14.0978 36.1663 14.1262 36.2178 14.1575 36.2684C14.1581 36.2692 14.159 36.2698 14.1599 36.2702C14.1609 36.2705 14.1619 36.2705 14.1629 36.2702C14.1639 36.2699 14.1647 36.2693 14.1653 36.2686C14.166 36.2678 14.1663 36.2668 14.1664 36.2658ZM24.7451 39.2933L23.2775 39.2943C23.2684 39.2943 23.2594 39.2915 23.2518 39.2864C23.2443 39.2812 23.2385 39.2739 23.2352 39.2654L15.5299 19.5762C15.5291 19.5745 15.5278 19.573 15.5262 19.5722C15.5245 19.5713 15.5226 19.571 15.5208 19.5713C15.5189 19.5717 15.5173 19.5726 15.5161 19.5741C15.5148 19.5755 15.5141 19.5773 15.5141 19.5791C15.5897 22.2824 15.6399 24.9874 15.6649 27.6941C15.6964 31.0656 15.6734 34.447 15.6701 37.8323C15.6701 37.8356 15.6713 37.8389 15.6736 37.8414C15.6758 37.8439 15.6789 37.8456 15.6823 37.8461L18.8928 38.2196C18.8969 38.2201 18.9007 38.2221 18.9034 38.2251C18.9061 38.2281 18.9076 38.232 18.9076 38.2361V39.2772C18.9076 39.2879 18.9021 39.2933 18.8912 39.2933L16.1745 39.2943C16.1716 39.2943 16.1687 39.2951 16.1663 39.2966C16.1638 39.2982 16.1619 39.3004 16.1607 39.3031C16.1594 39.3057 16.159 39.3087 16.1594 39.3116C16.1598 39.3146 16.1611 39.3173 16.163 39.3196C18.2186 41.7111 20.9827 43.2066 24.0677 43.8009C26.1345 44.1994 28.344 44.2277 30.4279 43.9218C32.3174 43.6445 34.0682 42.9382 35.6163 41.8172C36.6308 41.0821 37.5549 40.2522 38.3885 39.3275C38.3911 39.3247 38.3928 39.3212 38.3934 39.3175C38.394 39.3138 38.3935 39.3099 38.392 39.3065C38.3904 39.303 38.3879 39.3001 38.3847 39.298C38.3815 39.296 38.3778 39.2949 38.374 39.295L29.2997 39.293C29.297 39.293 29.2944 39.2919 29.2925 39.2901C29.2906 39.2882 29.2895 39.2857 29.2895 39.2831V38.2403C29.2895 38.2276 29.2958 38.2207 29.3083 38.2196L32.0979 37.9456C32.1066 37.9448 32.1147 37.9407 32.1206 37.9343C32.1265 37.9279 32.1299 37.9195 32.1301 37.9108C32.1873 35.4136 32.1846 32.916 32.1968 30.4184C32.1988 30.0077 32.2168 29.5274 32.2191 29.1644C32.2386 25.9311 32.2587 22.6982 32.2793 19.4658C32.2791 19.4634 32.2782 19.4611 32.2766 19.4592C32.275 19.4574 32.2728 19.4561 32.2705 19.4557C32.2681 19.4552 32.2656 19.4556 32.2634 19.4567C32.2613 19.4578 32.2596 19.4596 32.2586 19.4619L24.7688 39.2769C24.7646 39.2878 24.7567 39.2933 24.7451 39.2933Z" fill="#303237"/>
<path d="M61.6959 15.6484H63.796L69.153 28.979L74.4987 15.6484H76.61L69.9615 32H68.3219L61.6959 15.6484ZM61.0109 15.6484H62.8639L63.1671 25.6211V32H61.0109V15.6484ZM75.4308 15.6484H77.2838V32H75.1276V25.6211L75.4308 15.6484ZM83.4156 15.6484V32H81.2482V15.6484H83.4156ZM96.0724 27.8672C96.0724 27.4854 96.0125 27.1484 95.8927 26.8564C95.7804 26.557 95.5782 26.2874 95.2863 26.0479C95.0017 25.8083 94.6049 25.5799 94.0958 25.3628C93.5942 25.1457 92.9578 24.9248 92.1866 24.7002C91.3781 24.4606 90.6481 24.1948 89.9967 23.9028C89.3453 23.6034 88.7876 23.2627 88.3234 22.8809C87.8592 22.499 87.5035 22.061 87.2565 21.5669C87.0094 21.0728 86.8859 20.5075 86.8859 19.8711C86.8859 19.2347 87.0169 18.647 87.2789 18.1079C87.541 17.5688 87.9153 17.1009 88.402 16.7041C88.8961 16.2998 89.4838 15.9854 90.1652 15.7607C90.8465 15.5361 91.6064 15.4238 92.4449 15.4238C93.6728 15.4238 94.7135 15.6597 95.567 16.1313C96.428 16.5955 97.0831 17.2057 97.5323 17.9619C97.9816 18.7106 98.2062 19.5117 98.2062 20.3652H96.0499C96.0499 19.7513 95.9189 19.2085 95.6569 18.7368C95.3948 18.2576 94.998 17.8833 94.4664 17.6138C93.9349 17.3368 93.261 17.1982 92.4449 17.1982C91.6738 17.1982 91.0374 17.3143 90.5358 17.5464C90.0341 17.7785 89.6598 18.0929 89.4127 18.4897C89.1731 18.8866 89.0533 19.3395 89.0533 19.8486C89.0533 20.193 89.1245 20.5075 89.2667 20.792C89.4165 21.069 89.6448 21.3273 89.9518 21.5669C90.2662 21.8065 90.663 22.0273 91.1422 22.2295C91.6289 22.4316 92.2091 22.6263 92.8829 22.8135C93.8113 23.0755 94.6124 23.3675 95.2863 23.6895C95.9601 24.0114 96.5141 24.3745 96.9484 24.7788C97.3901 25.1756 97.7158 25.6286 97.9254 26.1377C98.1425 26.6393 98.2511 27.2083 98.2511 27.8447C98.2511 28.5111 98.1163 29.1138 97.8468 29.6528C97.5773 30.1919 97.1917 30.6523 96.6901 31.0342C96.1884 31.416 95.5857 31.7118 94.882 31.9214C94.1857 32.1235 93.407 32.2246 92.546 32.2246C91.7898 32.2246 91.0449 32.1198 90.3112 31.9102C89.5849 31.7005 88.9223 31.3861 88.3234 30.9668C87.7319 30.5475 87.2565 30.0309 86.8971 29.417C86.5452 28.7956 86.3693 28.0768 86.3693 27.2607H88.5255C88.5255 27.8223 88.6341 28.3052 88.8512 28.7095C89.0683 29.1063 89.3641 29.4357 89.7384 29.6978C90.1202 29.9598 90.5507 30.1545 91.0299 30.2817C91.5166 30.4015 92.0219 30.4614 92.546 30.4614C93.3022 30.4614 93.9423 30.3566 94.4664 30.147C94.9905 29.9373 95.3873 29.6379 95.6569 29.2485C95.9339 28.8592 96.0724 28.3988 96.0724 27.8672ZM109.729 27.8672C109.729 27.4854 109.669 27.1484 109.549 26.8564C109.437 26.557 109.234 26.2874 108.943 26.0479C108.658 25.8083 108.261 25.5799 107.752 25.3628C107.25 25.1457 106.614 24.9248 105.843 24.7002C105.034 24.4606 104.304 24.1948 103.653 23.9028C103.002 23.6034 102.444 23.2627 101.98 22.8809C101.515 22.499 101.16 22.061 100.913 21.5669C100.666 21.0728 100.542 20.5075 100.542 19.8711C100.542 19.2347 100.673 18.647 100.935 18.1079C101.197 17.5688 101.572 17.1009 102.058 16.7041C102.552 16.2998 103.14 15.9854 103.821 15.7607C104.503 15.5361 105.263 15.4238 106.101 15.4238C107.329 15.4238 108.37 15.6597 109.223 16.1313C110.084 16.5955 110.739 17.2057 111.189 17.9619C111.638 18.7106 111.862 19.5117 111.862 20.3652H109.706C109.706 19.7513 109.575 19.2085 109.313 18.7368C109.051 18.2576 108.654 17.8833 108.123 17.6138C107.591 17.3368 106.917 17.1982 106.101 17.1982C105.33 17.1982 104.694 17.3143 104.192 17.5464C103.69 17.7785 103.316 18.0929 103.069 18.4897C102.829 18.8866 102.71 19.3395 102.71 19.8486C102.71 20.193 102.781 20.5075 102.923 20.792C103.073 21.069 103.301 21.3273 103.608 21.5669C103.922 21.8065 104.319 22.0273 104.798 22.2295C105.285 22.4316 105.865 22.6263 106.539 22.8135C107.468 23.0755 108.269 23.3675 108.943 23.6895C109.616 24.0114 110.17 24.3745 110.605 24.7788C111.046 25.1756 111.372 25.6286 111.582 26.1377C111.799 26.6393 111.907 27.2083 111.907 27.8447C111.907 28.5111 111.773 29.1138 111.503 29.6528C111.234 30.1919 110.848 30.6523 110.346 31.0342C109.845 31.416 109.242 31.7118 108.538 31.9214C107.842 32.1235 107.063 32.2246 106.202 32.2246C105.446 32.2246 104.701 32.1198 103.967 31.9102C103.241 31.7005 102.579 31.3861 101.98 30.9668C101.388 30.5475 100.913 30.0309 100.553 29.417C100.201 28.7956 100.026 28.0768 100.026 27.2607H102.182C102.182 27.8223 102.29 28.3052 102.507 28.7095C102.725 29.1063 103.02 29.4357 103.395 29.6978C103.776 29.9598 104.207 30.1545 104.686 30.2817C105.173 30.4015 105.678 30.4614 106.202 30.4614C106.958 30.4614 107.599 30.3566 108.123 30.147C108.647 29.9373 109.044 29.6379 109.313 29.2485C109.59 28.8592 109.729 28.3988 109.729 27.8672ZM130.763 30.2368V32H122.105V30.2368H130.763ZM122.543 15.6484V32H120.375V15.6484H122.543ZM129.618 22.6787V24.4419H122.105V22.6787H129.618ZM130.651 15.6484V17.4229H122.105V15.6484H130.651ZM143.364 30.2368V32H135.188V30.2368H143.364ZM135.615 15.6484V32H133.447V15.6484H135.615ZM156.234 30.2368V32H147.575V30.2368H156.234ZM148.013 15.6484V32H145.846V15.6484H148.013ZM155.089 22.6787V24.4419H147.575V22.6787H155.089ZM156.122 15.6484V17.4229H147.575V15.6484H156.122ZM171.002 23.8579V29.8438C170.8 30.1432 170.478 30.4801 170.036 30.8545C169.595 31.2214 168.984 31.5433 168.206 31.8203C167.435 32.0898 166.439 32.2246 165.218 32.2246C164.223 32.2246 163.305 32.0524 162.467 31.708C161.636 31.3561 160.913 30.847 160.299 30.1807C159.693 29.5068 159.221 28.6908 158.884 27.7324C158.555 26.7666 158.39 25.6735 158.39 24.4531V23.1841C158.39 21.9637 158.533 20.8743 158.817 19.916C159.109 18.9577 159.536 18.1453 160.097 17.479C160.659 16.8052 161.348 16.2961 162.164 15.9517C162.98 15.5998 163.916 15.4238 164.971 15.4238C166.222 15.4238 167.266 15.641 168.105 16.0752C168.951 16.502 169.609 17.0934 170.081 17.8496C170.56 18.6058 170.867 19.4668 171.002 20.4326H168.835C168.737 19.8411 168.543 19.3021 168.251 18.8154C167.966 18.3288 167.558 17.9395 167.026 17.6475C166.495 17.348 165.81 17.1982 164.971 17.1982C164.215 17.1982 163.56 17.3368 163.006 17.6138C162.452 17.8908 161.995 18.2876 161.636 18.8042C161.276 19.3208 161.007 19.946 160.827 20.6797C160.655 21.4134 160.569 22.2407 160.569 23.1616V24.4531C160.569 25.3965 160.678 26.2388 160.895 26.98C161.119 27.7212 161.437 28.3538 161.849 28.8779C162.261 29.3945 162.751 29.7876 163.32 30.0571C163.897 30.3267 164.533 30.4614 165.23 30.4614C166.001 30.4614 166.626 30.3978 167.105 30.2705C167.584 30.1357 167.959 29.9785 168.228 29.7988C168.498 29.6117 168.704 29.4357 168.846 29.271V25.6099H165.061V23.8579H171.002ZM180.649 17.0972L175.236 32H173.024L179.256 15.6484H180.683L180.649 17.0972ZM185.186 32L179.762 17.0972L179.728 15.6484H181.154L187.41 32H185.186ZM184.905 25.9468V27.7212H175.719V25.9468H184.905ZM202.178 15.6484V32H199.999L191.767 19.3882V32H189.6V15.6484H191.767L200.033 28.2939V15.6484H202.178ZM215.89 26.8003H218.047C217.934 27.8335 217.638 28.7581 217.159 29.5742C216.68 30.3903 216.003 31.0379 215.127 31.5171C214.251 31.9888 213.158 32.2246 211.847 32.2246C210.889 32.2246 210.017 32.0449 209.231 31.6855C208.452 31.3262 207.782 30.8171 207.22 30.1582C206.659 29.4919 206.225 28.6945 205.918 27.7661C205.618 26.8302 205.468 25.7896 205.468 24.644V23.0156C205.468 21.8701 205.618 20.8332 205.918 19.9048C206.225 18.9689 206.663 18.1678 207.232 17.5015C207.808 16.8351 208.501 16.3223 209.309 15.9629C210.118 15.6035 211.027 15.4238 212.038 15.4238C213.274 15.4238 214.318 15.6559 215.172 16.1201C216.025 16.5843 216.688 17.2282 217.159 18.0518C217.638 18.8678 217.934 19.8149 218.047 20.8931H215.89C215.785 20.1294 215.591 19.4743 215.306 18.9277C215.022 18.3737 214.617 17.9469 214.093 17.6475C213.569 17.348 212.884 17.1982 212.038 17.1982C211.312 17.1982 210.672 17.3368 210.118 17.6138C209.571 17.8908 209.111 18.2839 208.736 18.793C208.37 19.3021 208.093 19.9123 207.905 20.6235C207.718 21.3348 207.625 22.1247 207.625 22.9932V24.644C207.625 25.4451 207.707 26.1976 207.872 26.9014C208.044 27.6051 208.302 28.2228 208.647 28.7544C208.991 29.286 209.429 29.7052 209.961 30.0122C210.492 30.3117 211.121 30.4614 211.847 30.4614C212.768 30.4614 213.502 30.3154 214.048 30.0234C214.595 29.7314 215.007 29.3122 215.284 28.7656C215.568 28.2191 215.77 27.564 215.89 26.8003ZM231.388 30.2368V32H222.73V30.2368H231.388ZM223.168 15.6484V32H221V15.6484H223.168ZM230.243 22.6787V24.4419H222.73V22.6787H230.243ZM231.276 15.6484V17.4229H222.73V15.6484H231.276Z" fill="black"/>
</svg>
