<svg width="69" height="41" viewBox="0 0 69 41" fill="none" xmlns="http://www.w3.org/2000/svg">
<path d="M3.17376 40.1782C2.3352 40.1767 1.53119 39.8439 0.936776 39.2524C0.34236 38.661 0.00566806 37.8586 0 37.0201L0 33.0822C0 31.3448 1.4364 29.9084 3.17376 29.9084H11.6925V32.3493H4.22126C4.08267 32.3503 3.94564 32.3787 3.818 32.4326C3.69035 32.4866 3.57459 32.5652 3.47732 32.6639C3.38005 32.7627 3.30318 32.8796 3.25109 33.008C3.19901 33.1364 3.17273 33.2739 3.17376 33.4124V36.6898C3.17376 37.2741 3.63693 37.7392 4.22126 37.7392H11.6925V40.1782H3.17376ZM17.7977 32.3493C17.6598 32.3503 17.5235 32.3787 17.3967 32.4329C17.27 32.4871 17.1552 32.5659 17.0592 32.6649C16.9632 32.7638 16.8878 32.8808 16.8374 33.0092C16.787 33.1375 16.7627 33.2746 16.7658 33.4124V40.1782H13.5764V33.0841C13.5764 31.3468 15.0128 29.9104 16.7658 29.9104H22.0346V32.3513H17.7977V32.3493ZM33.4711 40.1782H26.0311C25.1906 40.1787 24.384 39.8471 23.787 39.2556C23.1899 38.664 22.8509 37.8605 22.8437 37.0201V33.0822C22.8437 31.3448 24.2801 29.9084 26.0311 29.9084H33.4711C35.2221 29.9084 36.6311 31.3448 36.6311 33.0822V37.0201C36.6311 38.7574 35.2221 40.1782 33.4711 40.1782ZM33.4711 33.4124C33.4711 33.1332 33.3612 32.8651 33.1652 32.6662C32.9692 32.4672 32.7028 32.3534 32.4236 32.3493H27.0649C26.927 32.3503 26.7906 32.3787 26.6637 32.4329C26.5368 32.487 26.4219 32.5658 26.3257 32.6647C26.2296 32.7636 26.154 32.8807 26.1034 33.009C26.0528 33.1374 26.0282 33.2745 26.0311 33.4124V36.6898C26.0311 37.2741 26.4806 37.7392 27.0649 37.7392H32.4236C32.7014 37.7382 32.9675 37.6272 33.1638 37.4306C33.3601 37.234 33.4706 36.9676 33.4711 36.6898V33.4124ZM51.2082 40.1782H41.7025C40.8633 40.1787 40.0581 39.8466 39.4633 39.2547C38.8684 38.6628 38.5324 37.8592 38.5288 37.0201V29.9084H41.7025V37.1549C41.7025 37.4695 41.9722 37.7392 42.2869 37.7392H44.2783C44.4331 37.7387 44.5814 37.677 44.6909 37.5675C44.8004 37.458 44.8621 37.3097 44.8626 37.1549V29.9084H48.05V37.1549C48.05 37.4695 48.3197 37.7392 48.6344 37.7392H50.6258C50.7806 37.7387 50.9289 37.677 51.0384 37.5675C51.1479 37.458 51.2096 37.3097 51.2101 37.1549V29.9084H54.3839V37.0201C54.3792 37.8593 54.0426 38.6625 53.4476 39.2543C52.8525 39.846 52.0474 40.1782 51.2082 40.1782ZM65.8126 40.1782V33.4124C65.8159 33.2757 65.7922 33.1396 65.7428 33.012C65.6934 32.8844 65.6192 32.7679 65.5246 32.6691C65.43 32.5703 65.3167 32.4912 65.1914 32.4363C65.0661 32.3814 64.9312 32.3518 64.7944 32.3493H60.4676C60.1898 32.3539 59.9251 32.4684 59.7313 32.6676C59.5376 32.8668 59.4306 33.1346 59.4338 33.4124V40.1782H56.26V33.0841C56.2631 32.2433 56.5985 31.4379 57.193 30.8434C57.7875 30.2488 58.593 29.9135 59.4338 29.9104H65.8106C67.5773 29.9104 69 31.3468 69 33.0841V40.1782H65.8126ZM46.3948 23.0039C44.2705 25.1028 37.5262 25.1028 34.4678 25.1028C31.4073 25.1028 24.6651 25.1028 22.5388 23.0039C20.6685 21.1356 20.5278 14.5907 20.5278 12.5504C20.5278 10.5121 20.6685 3.9672 22.5388 2.12626C24.6651 0 31.4073 0 34.4678 0C37.5262 0 44.2705 0 46.3948 2.12431C48.265 3.96525 48.4331 10.5102 48.4331 12.5485C48.4331 14.5907 48.2631 21.1337 46.3948 23.0039ZM44.9212 3.59784C43.647 2.32365 38.4897 2.095 34.4678 2.095C30.4439 2.095 25.2885 2.32169 24.0416 3.59784C23.0508 4.58867 22.5974 9.17733 22.5974 12.5504C22.5974 15.9235 23.0508 20.5122 24.0416 21.503C25.2885 22.7772 30.4439 23.0332 34.4678 23.0332C38.4897 23.0332 43.647 22.7792 44.9212 21.503C45.9121 20.5122 46.3381 15.9216 46.3381 12.5504C46.3381 9.17929 45.9121 4.59062 44.9212 3.59784ZM42.7676 15.2708H26.1659L25.1458 7.225L30.2172 10.7369L34.4678 6.45892L38.7457 10.7369L43.8171 7.225L42.7676 15.2708ZM42.3709 18.4152H26.59L26.336 16.6583H42.5976L42.3709 18.4152ZM38.5757 12.8338L34.4678 8.75521L30.3598 12.8338L27.2428 10.6255L27.6102 13.5432H41.3234L41.7201 10.6255L38.5757 12.8338Z" fill="#505050"/>
</svg>
