<svg width="124" height="38" viewBox="0 0 124 38" fill="none" xmlns="http://www.w3.org/2000/svg">
<g clip-path="url(#clip0_254_2985)">
<path d="M32.9165 37.9413C32.138 37.9399 31.3915 37.631 30.8397 37.0819C30.2878 36.5327 29.9752 35.7878 29.97 35.0093V31.3534C29.97 29.7404 31.3035 28.4068 32.9165 28.4068H40.8254V30.673H33.889C33.7604 30.6739 33.6331 30.7002 33.5146 30.7503C33.3961 30.8004 33.2886 30.8734 33.1983 30.9651C33.108 31.0567 33.0367 31.1652 32.9883 31.2845C32.94 31.4037 32.9156 31.5313 32.9165 31.66V34.7027C32.9165 35.2452 33.3465 35.677 33.889 35.677H40.8254V37.9413H32.9165ZM46.4935 30.673C46.3655 30.6739 46.2389 30.7003 46.1212 30.7506C46.0035 30.8009 45.897 30.8741 45.8078 30.9659C45.7187 31.0578 45.6487 31.1664 45.6019 31.2856C45.5552 31.4047 45.5326 31.532 45.5355 31.66V37.9413H42.5744V31.3552C42.5744 29.7422 43.908 28.4086 45.5355 28.4086H50.427V30.6748H46.4935V30.673ZM61.0447 37.9413H54.1374C53.3571 37.9418 52.6082 37.634 52.054 37.0848C51.4997 36.5356 51.1849 35.7896 51.1782 35.0093V31.3534C51.1782 29.7404 52.5117 28.4068 54.1374 28.4068H61.0447C62.6704 28.4068 63.9786 29.7404 63.9786 31.3534V35.0093C63.9786 36.6223 62.6704 37.9413 61.0447 37.9413ZM61.0447 31.66C61.0448 31.4007 60.9428 31.1518 60.7608 30.9671C60.5788 30.7824 60.3315 30.6768 60.0722 30.673H55.0972C54.9691 30.6739 54.8425 30.7003 54.7247 30.7505C54.6069 30.8008 54.5003 30.874 54.411 30.9658C54.3217 31.0576 54.2515 31.1663 54.2045 31.2854C54.1576 31.4046 54.1348 31.5319 54.1374 31.66V34.7027C54.1374 35.2452 54.5547 35.677 55.0972 35.677H60.0722C60.3302 35.676 60.5772 35.573 60.7595 35.3905C60.9417 35.2079 61.0443 34.9606 61.0447 34.7027V31.66ZM77.512 37.9413H68.6869C67.9078 37.9418 67.1602 37.6335 66.6079 37.084C66.0557 36.5344 65.7437 35.7884 65.7403 35.0093V28.4068H68.6869V35.1345C68.6869 35.4266 68.9372 35.677 69.2294 35.677H71.0782C71.2219 35.6765 71.3596 35.6192 71.4613 35.5176C71.5629 35.4159 71.6202 35.2782 71.6207 35.1345V28.4068H74.5799V35.1345C74.5799 35.4266 74.8303 35.677 75.1224 35.677H76.9713C77.115 35.6765 77.2527 35.6192 77.3544 35.5176C77.456 35.4159 77.5133 35.2782 77.5138 35.1345V28.4068H80.4603V35.0093C80.456 35.7884 80.1435 36.5342 79.591 37.0836C79.0386 37.633 78.2911 37.9414 77.512 37.9413ZM91.0708 37.9413V31.66C91.0739 31.533 91.0519 31.4067 91.006 31.2882C90.9601 31.1698 90.8913 31.0616 90.8034 30.9698C90.7156 30.8781 90.6105 30.8047 90.4941 30.7537C90.3778 30.7028 90.2525 30.6753 90.1255 30.673H86.1085C85.8505 30.6773 85.6048 30.7835 85.4249 30.9684C85.2451 31.1534 85.1458 31.402 85.1487 31.66V37.9413H82.2021V31.3552C82.205 30.5746 82.5164 29.8268 83.0683 29.2748C83.6203 28.7229 84.3681 28.4115 85.1487 28.4086H91.069C92.7092 28.4086 94.03 29.7422 94.03 31.3552V37.9413H91.0708ZM73.0432 21.9966C71.0709 23.9453 64.8095 23.9453 61.9701 23.9453C59.1287 23.9453 52.8692 23.9453 50.8951 21.9966C49.1588 20.2621 49.0281 14.1858 49.0281 12.2916C49.0281 10.3992 49.1588 4.32283 50.8951 2.61369C52.8692 0.639648 59.1287 0.639648 61.9701 0.639648C64.8095 0.639648 71.0709 0.639648 73.0432 2.61187C74.7795 4.32101 74.9356 10.3973 74.9356 12.2897C74.9356 14.1858 74.7777 20.2603 73.0432 21.9966ZM71.6751 3.97991C70.4922 2.79694 65.704 2.58466 61.9701 2.58466C58.2343 2.58466 53.448 2.79512 52.2904 3.97991C51.3705 4.8998 50.9496 9.15994 50.9496 12.2916C50.9496 15.4232 51.3705 19.6833 52.2904 20.6032C53.448 21.7862 58.2343 22.0238 61.9701 22.0238C65.704 22.0238 70.4922 21.788 71.6751 20.6032C72.595 19.6833 72.9906 15.4213 72.9906 12.2916C72.9906 9.16176 72.595 4.90161 71.6751 3.97991ZM69.6757 14.8172H54.2626L53.3155 7.34738L58.0238 10.6078L61.9701 6.63615L65.9417 10.6078L70.65 7.34738L69.6757 14.8172ZM69.3074 17.7365H54.6563L54.4205 16.1054H69.5178L69.3074 17.7365ZM65.7839 12.5546L61.9701 8.76804L58.1562 12.5546L55.2623 10.5044L55.6034 13.2133H68.3349L68.7032 10.5044L65.7839 12.5546Z" fill="white"/>
</g>
<defs>
<clipPath id="clip0_254_2985">
<rect width="122.55" height="37.3017" fill="white" transform="translate(0.725159 0.639648)"/>
</clipPath>
</defs>
</svg>
