<svg width="210" height="56" viewBox="0 0 210 56" fill="none" xmlns="http://www.w3.org/2000/svg">
<path d="M51.9382 31.8725C46.5441 26.8749 46.2348 18.6506 50.7675 13.0265C54.0638 8.93605 59.2198 7.29277 64.3267 7.48842C70.9841 7.74245 77.0585 11.7296 78.7545 18.3887C80.1404 23.8321 78.2902 29.6471 73.6365 32.9675C68.0003 36.9894 60.2584 37.2134 54.3232 33.6941C53.5464 33.2334 52.7514 32.6262 51.9382 31.8725ZM51.7658 24.352C53.1359 30.2072 58.9231 33.9205 64.8496 33.1908C70.9327 32.4421 76.031 27.0342 75.3159 20.7246C74.6823 15.1392 70.076 10.6401 64.3853 10.3498C63.5721 10.3082 62.7895 10.3293 62.0375 10.4129C55.2915 11.1639 50.1734 17.5477 51.7658 24.352Z" fill="black"/>
<path d="M121.86 7.70539H127.831C127.837 7.70561 127.843 7.70793 127.847 7.71195C127.852 7.71596 127.855 7.72141 127.856 7.72738C127.857 7.73335 127.855 7.73945 127.852 7.74465C127.849 7.74985 127.844 7.75382 127.839 7.75587L119.072 10.7955C119.066 10.7972 119.06 10.7971 119.055 10.7952C119.05 10.7934 119.045 10.7898 119.042 10.785C119.039 10.7803 119.037 10.7747 119.038 10.769C119.038 10.7634 119.04 10.758 119.044 10.7537L121.84 7.71406C121.843 7.71129 121.846 7.70908 121.849 7.70759C121.853 7.70609 121.856 7.70534 121.86 7.70539Z" fill="black"/>
<path d="M100.223 24.6407C100.217 24.6428 100.211 24.6465 100.206 24.6514C100.201 24.6562 100.198 24.6622 100.195 24.6688C100.193 24.6754 100.193 24.6824 100.194 24.6893C100.195 24.6962 100.197 24.7028 100.201 24.7085C102.411 27.9138 104.755 31.0253 107.129 34.1028C107.185 34.1759 107.167 34.2124 107.075 34.2124C105.741 34.213 104.411 34.213 103.086 34.2124C102.968 34.2124 102.935 34.1185 102.877 34.0404C100.594 30.9348 98.3331 27.8129 96.095 24.6746C96.0823 24.6562 96.0647 24.647 96.042 24.647H86.801C86.7552 24.647 86.7325 24.6699 86.733 24.7156L86.7591 34.1769C86.7591 34.1866 86.7553 34.1958 86.7485 34.2026C86.7416 34.2094 86.7324 34.2132 86.7227 34.2132L83.5016 34.2109C83.4325 34.2109 83.398 34.1764 83.398 34.1075L83.3663 11.3343C83.3663 11.2949 83.3864 11.2751 83.4265 11.2751C88.1627 11.2751 92.9097 11.2751 97.6676 11.2751C101.376 11.2751 104.787 12.7725 105.638 16.6586C105.739 17.1162 105.86 17.8364 105.824 18.3737C105.64 21.037 104.02 23.1339 101.575 24.1413C101.125 24.327 100.674 24.4934 100.223 24.6407ZM86.7607 21.8527C86.776 21.8622 86.7926 21.8669 86.8105 21.8669C90.0986 21.869 93.3865 21.8653 96.674 21.8559C99.3335 21.848 101.669 21.56 102.299 18.5196C102.361 18.2198 102.38 17.7457 102.343 17.4585C102.129 15.7829 100.893 14.624 99.286 14.2414C98.756 14.1152 98.3682 14.0515 98.1224 14.0505C94.3913 14.0321 90.6249 14.0292 86.8232 14.0418C86.7494 14.0418 86.7124 14.0786 86.7124 14.1523L86.7101 21.8575C86.7101 21.8638 86.713 21.8653 86.7188 21.8622L86.7378 21.8519C86.7451 21.8477 86.7528 21.848 86.7607 21.8527Z" fill="black"/>
<path d="M27.6937 31.7881L45.0934 31.7353C45.1746 31.7347 45.2155 31.7752 45.216 31.8568L45.2334 34.2116C45.2335 34.2183 45.2323 34.225 45.2298 34.2312C45.2273 34.2374 45.2236 34.2431 45.2189 34.2478C45.2142 34.2526 45.2086 34.2564 45.2024 34.259C45.1962 34.2616 45.1895 34.2629 45.1828 34.2629L24.5255 34.2921C24.4127 34.2921 24.3563 34.2358 24.3563 34.1233L24.3547 11.4053C24.3547 11.376 24.3663 11.3479 24.3869 11.3272C24.4075 11.3065 24.4355 11.2949 24.4646 11.2949H27.4825C27.5589 11.2949 27.5966 11.333 27.5956 11.4093C27.4745 18.1725 27.6066 24.8639 27.5742 31.669C27.5741 31.6846 27.5771 31.7001 27.5831 31.7145C27.589 31.729 27.5978 31.7421 27.6089 31.7532C27.62 31.7643 27.6332 31.773 27.6478 31.779C27.6623 31.785 27.6779 31.7881 27.6937 31.7881Z" fill="black"/>
<path d="M42.4743 11.2949H45.9723C45.9766 11.2947 45.9809 11.2958 45.9847 11.2978C45.9885 11.2999 45.9916 11.3029 45.9939 11.3066C45.9961 11.3103 45.9974 11.3145 45.9975 11.3188C45.9976 11.3231 45.9965 11.3274 45.9944 11.3312L41.6627 19.3819C41.6606 19.3857 41.6575 19.3889 41.6537 19.3911C41.6499 19.3933 41.6457 19.3945 41.6413 19.3945L39.246 19.4229C39.2421 19.4229 39.2381 19.422 39.2346 19.4201C39.2311 19.4183 39.2281 19.4156 39.2258 19.4124C39.2236 19.4091 39.2222 19.4053 39.2217 19.4014C39.2212 19.3975 39.2217 19.3935 39.2231 19.3898L42.4513 11.3106C42.4531 11.306 42.4562 11.302 42.4603 11.2992C42.4644 11.2964 42.4693 11.2949 42.4743 11.2949Z" fill="black"/>
<path d="M114.873 31.6603L131.709 31.6903C131.731 31.6904 131.752 31.6953 131.771 31.7046C131.791 31.7139 131.808 31.7274 131.821 31.7441C131.834 31.7608 131.844 31.7803 131.849 31.8012C131.854 31.822 131.854 31.8437 131.849 31.8646C131.792 32.1171 131.79 32.3603 131.843 32.5944C131.862 32.6764 131.788 32.8468 131.799 32.9636C131.832 33.3675 131.843 33.7719 131.833 34.1769C131.833 34.2064 131.818 34.2211 131.788 34.2211L111.252 34.2085C111.237 34.2085 111.222 34.2025 111.212 34.1919C111.201 34.1812 111.195 34.1668 111.194 34.1517L111.166 11.3524C111.166 11.3458 111.168 11.3393 111.171 11.3332C111.174 11.3272 111.179 11.3216 111.186 11.317C111.192 11.3124 111.2 11.3087 111.208 11.3063C111.216 11.3038 111.225 11.3026 111.234 11.3027L131.782 11.3666C131.787 11.3666 131.791 11.3686 131.795 11.372C131.798 11.3754 131.8 11.38 131.8 11.3848L131.801 13.813C131.801 13.8746 131.77 13.9051 131.708 13.9045L114.813 13.8722C114.756 13.8717 114.728 13.9001 114.729 13.9574L114.749 21.082C114.749 21.1403 114.779 21.1695 114.838 21.1695L127.507 21.1916C127.535 21.1916 127.549 21.2053 127.549 21.2326V23.7011C127.549 23.7118 127.545 23.722 127.537 23.7295C127.53 23.7371 127.52 23.7413 127.509 23.7413L114.836 23.7137C114.795 23.7137 114.774 23.7345 114.774 23.776V31.5633C114.774 31.628 114.807 31.6603 114.873 31.6603Z" fill="black"/>
<path d="M140.656 28.3596C140.531 28.3338 140.447 28.3622 140.403 28.4448C139.396 30.345 138.413 32.2618 137.454 34.1951C137.442 34.2198 137.422 34.2322 137.394 34.2322H133.427C133.394 34.2322 133.385 34.2177 133.4 34.1888L145.083 11.4992C145.097 11.4716 145.119 11.4485 145.145 11.4324C145.172 11.4162 145.203 11.4077 145.234 11.4077L149.633 11.4377C149.641 11.4377 149.649 11.4398 149.656 11.4439C149.662 11.4479 149.668 11.4537 149.671 11.4606L161.497 34.289C161.498 34.2921 161.499 34.2956 161.499 34.2991C161.499 34.3026 161.498 34.3061 161.496 34.3091C161.494 34.3121 161.492 34.3146 161.489 34.3163C161.486 34.318 161.482 34.319 161.479 34.319L157.598 34.2858C157.566 34.2858 157.54 34.2729 157.521 34.2472C157.417 34.1067 157.325 33.959 157.246 33.8038C156.338 32.0162 155.413 30.2372 154.471 28.4669C154.459 28.4438 154.44 28.4293 154.415 28.4235C154.279 28.3941 154.184 28.3825 154.128 28.3888C153.705 28.4353 153.183 28.3959 152.881 28.3959C149.018 28.3938 145.156 28.3922 141.294 28.3912C140.969 28.3912 140.756 28.3806 140.656 28.3596ZM141.917 25.4367C141.914 25.4419 141.913 25.4476 141.913 25.4533C141.914 25.459 141.915 25.4646 141.918 25.4694C141.921 25.4743 141.926 25.4784 141.931 25.4812C141.936 25.484 141.941 25.4856 141.947 25.4856L152.897 25.4667C152.902 25.4666 152.908 25.4651 152.913 25.4623C152.918 25.4594 152.922 25.4554 152.925 25.4505C152.928 25.4456 152.93 25.4401 152.93 25.4344C152.93 25.4286 152.929 25.4229 152.927 25.4178L147.433 14.7258C147.43 14.7204 147.426 14.7158 147.42 14.7126C147.415 14.7095 147.409 14.7078 147.403 14.7078C147.397 14.7078 147.39 14.7095 147.385 14.7126C147.38 14.7158 147.376 14.7204 147.373 14.7258L141.917 25.4367Z" fill="black"/>
<path d="M166.512 31.7448C166.512 31.7795 166.529 31.7971 166.564 31.7976C171.05 31.8213 175.535 31.8237 180.021 31.8047C180.026 31.8047 180.031 31.8068 180.035 31.811C180.039 31.8173 180.043 31.8226 180.047 31.8268C180.052 31.8305 180.057 31.8323 180.063 31.8323C181.253 31.8139 182.444 31.8047 183.634 31.8047C183.793 31.8047 183.953 31.8134 184.113 31.8308C184.139 31.8334 184.152 31.8473 184.152 31.8726L184.174 34.2827C184.174 34.3205 184.155 34.3395 184.117 34.3395L163.303 34.3C163.256 34.3 163.233 34.2769 163.232 34.2306L163.175 11.5655C163.175 11.5287 163.194 11.5103 163.231 11.5103L166.456 11.515C166.467 11.515 166.478 11.5196 166.487 11.5277C166.495 11.5358 166.499 11.5469 166.499 11.5584L166.512 31.7448Z" fill="black"/>
<path d="M123.048 43.6682C122.627 42.9227 122.879 41.8395 123.495 41.2289C124.33 40.4013 125.557 40.1165 126.697 40.0724C128.223 40.014 131.173 40.2112 131.786 42.0801C131.834 42.2279 131.897 42.5172 131.974 42.9479C131.98 42.9779 131.967 42.9929 131.936 42.9929L130.365 42.9661C130.336 42.9655 130.32 42.9511 130.318 42.9227C130.187 41.2699 127.978 41.0585 126.734 41.1634C125.784 41.2439 124.236 41.6194 124.553 42.9605C124.675 43.4765 125.399 43.7005 125.883 43.7865C126.936 43.9732 127.99 44.1541 129.047 44.3293C130.463 44.5636 132.335 45.1103 132.313 46.8956C132.285 49.0619 129.795 49.5557 128.111 49.6543C125.98 49.779 122.524 49.4161 122.423 46.5492C122.423 46.5279 122.426 46.5067 122.435 46.4871C122.443 46.4674 122.455 46.4498 122.471 46.4355C122.487 46.4211 122.505 46.4104 122.526 46.404C122.546 46.3977 122.568 46.3958 122.589 46.3986C123.031 46.4559 123.472 46.4546 123.914 46.3946C123.931 46.3923 123.949 46.3936 123.966 46.3985C123.983 46.4034 123.999 46.4118 124.012 46.4231C124.026 46.4343 124.037 46.4483 124.045 46.4641C124.052 46.4798 124.057 46.497 124.058 46.5145C124.165 48.9088 127.922 48.7487 129.466 48.3266C130.27 48.1073 130.826 47.4967 130.57 46.6226C130.395 46.0262 129.569 45.7887 129.028 45.6657C128.219 45.4811 127.328 45.3509 126.591 45.2057C125.426 44.9762 123.708 44.8357 123.048 43.6682Z" fill="black"/>
<path d="M118.495 40.17L116.892 40.1672C116.87 40.1672 116.853 40.1848 116.853 40.2066L116.85 41.8018C116.85 41.8236 116.867 41.8413 116.889 41.8413L118.492 41.8441C118.514 41.8441 118.532 41.8265 118.532 41.8047L118.534 40.2095C118.534 40.1878 118.517 40.1701 118.495 40.17Z" fill="black"/>
<path d="M87.1617 49.3206L92.4158 40.2561C92.4204 40.2482 92.4269 40.2416 92.4348 40.237C92.4428 40.2324 92.4518 40.23 92.4609 40.2301L94.6537 40.253C94.6627 40.2531 94.6716 40.2555 94.6794 40.2601C94.6871 40.2646 94.6936 40.2712 94.698 40.279L99.7868 49.323C99.7912 49.3308 99.7935 49.3396 99.7934 49.3486C99.7934 49.3576 99.7909 49.3664 99.7863 49.3742C99.7818 49.3819 99.7753 49.3884 99.7674 49.3928C99.7596 49.3972 99.7507 49.3996 99.7417 49.3995L97.6945 49.3971C97.6851 49.397 97.676 49.3944 97.6681 49.3896C97.6601 49.3847 97.6537 49.3778 97.6494 49.3695L96.2825 46.7448C96.2782 46.7366 96.2717 46.7297 96.2637 46.7248C96.2558 46.7199 96.2467 46.7173 96.2374 46.7172L90.6613 46.7157C90.6521 46.7157 90.643 46.7182 90.6351 46.7229C90.6272 46.7276 90.6206 46.7344 90.6162 46.7425L89.1742 49.3727C89.1697 49.3809 89.163 49.3877 89.155 49.3925C89.1469 49.3972 89.1377 49.3996 89.1283 49.3995L87.2068 49.3971C87.1978 49.3972 87.189 49.3949 87.1811 49.3904C87.1733 49.386 87.1667 49.3796 87.1622 49.3718C87.1576 49.3641 87.1552 49.3553 87.1551 49.3463C87.155 49.3373 87.1573 49.3284 87.1617 49.3206ZM91.2783 45.5023C91.2743 45.5093 91.2722 45.5171 91.2722 45.5252C91.2722 45.5332 91.2743 45.5411 91.2783 45.548C91.2823 45.555 91.2881 45.5607 91.295 45.5648C91.302 45.5688 91.3098 45.5709 91.3179 45.571L95.4756 45.5607C95.4835 45.5607 95.4912 45.5586 95.498 45.5547C95.5049 45.5508 95.5106 45.5452 95.5147 45.5385C95.5187 45.5318 95.521 45.5241 95.5212 45.5162C95.5214 45.5084 95.5196 45.5006 95.5159 45.4936L93.5075 41.6943C93.5036 41.687 93.4979 41.6809 93.4908 41.6766C93.4837 41.6723 93.4756 41.67 93.4674 41.6699C93.4591 41.6699 93.451 41.672 93.4438 41.6762C93.4367 41.6803 93.4308 41.6863 93.4268 41.6935L91.2783 45.5023Z" fill="black"/>
<path d="M104.629 45.5528V49.3033C104.629 49.3249 104.62 49.3457 104.605 49.361C104.589 49.3764 104.568 49.3851 104.546 49.3853L102.948 49.3861C102.933 49.3861 102.918 49.3831 102.904 49.3772C102.89 49.3713 102.878 49.3627 102.868 49.3518C102.857 49.3409 102.849 49.3281 102.844 49.314C102.839 49.3 102.837 49.2851 102.838 49.2701C102.874 48.5791 102.886 47.8659 102.873 47.1306C102.837 44.8749 102.822 42.5976 102.829 40.2988C102.83 40.2656 102.847 40.2491 102.88 40.2491C104.46 40.2512 106.05 40.2435 107.649 40.2262C108.225 40.2199 108.8 40.2425 109.374 40.294C110.77 40.4203 112.555 41.2147 112.403 42.925C112.279 44.3151 111.28 45.0661 110.005 45.3706C109.998 45.3725 109.991 45.3762 109.985 45.3815C109.979 45.3867 109.974 45.3933 109.972 45.4007C109.969 45.4081 109.968 45.4161 109.969 45.4239C109.97 45.4317 109.973 45.4392 109.978 45.4456L112.86 49.3135C112.863 49.3176 112.865 49.3224 112.865 49.3275C112.866 49.3326 112.865 49.3377 112.862 49.3423C112.86 49.3469 112.856 49.3507 112.852 49.3532C112.848 49.3558 112.843 49.3571 112.837 49.3569L110.854 49.308C110.844 49.3077 110.834 49.3051 110.826 49.3003C110.817 49.2955 110.809 49.2887 110.804 49.2804C109.972 48.0639 109.132 46.8564 108.281 45.6578C108.175 45.5087 108.071 45.5205 107.909 45.5221C106.831 45.5279 105.752 45.5237 104.673 45.5095C104.644 45.5089 104.629 45.5234 104.629 45.5528ZM104.606 41.3346V44.3798C104.606 44.3821 104.606 44.3845 104.607 44.3867C104.608 44.3889 104.609 44.3909 104.611 44.3926C104.613 44.3943 104.615 44.3956 104.617 44.3965C104.619 44.3974 104.622 44.3979 104.624 44.3979H108.443C108.724 44.3979 109.002 44.3626 109.262 44.2939C109.522 44.2252 109.757 44.1246 109.956 43.9977C110.155 43.8708 110.312 43.7202 110.42 43.5544C110.528 43.3886 110.583 43.211 110.583 43.0315V42.6828C110.583 42.5034 110.528 42.3257 110.42 42.1599C110.312 41.9942 110.155 41.8435 109.956 41.7167C109.757 41.5898 109.522 41.4891 109.262 41.4205C109.002 41.3518 108.724 41.3165 108.443 41.3165H104.624C104.619 41.3165 104.615 41.3184 104.611 41.3218C104.608 41.3252 104.606 41.3298 104.606 41.3346Z" fill="black"/>
<path d="M84.2824 40.4053C85.87 40.7011 87.2322 41.9989 86.5179 43.7226C85.9436 45.1079 84.3172 45.4787 82.9685 45.515C81.6084 45.5523 80.2528 45.5639 78.9017 45.5497C78.8874 45.5496 78.8731 45.5523 78.8598 45.5578C78.8465 45.5632 78.8345 45.5712 78.8243 45.5813C78.8142 45.5915 78.8061 45.6035 78.8007 45.6168C78.7952 45.63 78.7925 45.6442 78.7926 45.6586L78.8353 49.3514C78.8354 49.3576 78.8343 49.3637 78.832 49.3695C78.8298 49.3752 78.8264 49.3804 78.8221 49.3848C78.8179 49.3892 78.8128 49.3927 78.8071 49.3951C78.8015 49.3975 78.7955 49.3987 78.7894 49.3987H77.1045C77.0802 49.3987 77.0681 49.3869 77.0681 49.3632L77.0365 40.2854C77.0359 40.2675 77.0449 40.2585 77.0634 40.2585C78.9466 40.2649 80.8314 40.2588 82.7177 40.2404C83.1502 40.2362 83.6717 40.2912 84.2824 40.4053ZM78.7942 41.3709L78.8052 44.3734C78.8052 44.3791 78.8064 44.3848 78.8085 44.3901C78.8107 44.3953 78.8139 44.4001 78.818 44.4041C78.822 44.4082 78.8268 44.4114 78.8321 44.4135C78.8374 44.4157 78.843 44.4168 78.8487 44.4168L82.6608 44.4034C83.2439 44.4014 83.8026 44.2557 84.2141 43.9985C84.6256 43.7412 84.8561 43.3934 84.8551 43.0315L84.8535 42.6718C84.853 42.4925 84.7956 42.3152 84.6846 42.1499C84.5735 41.9847 84.411 41.8347 84.2064 41.7086C84.0017 41.5825 83.7589 41.4828 83.4918 41.4151C83.2247 41.3474 82.9386 41.3131 82.6497 41.3141L78.8377 41.3275C78.8261 41.3275 78.8151 41.3321 78.8069 41.3402C78.7987 41.3483 78.7942 41.3594 78.7942 41.3709Z" fill="black"/>
<path d="M118.569 42.7335L116.905 42.7364C116.893 42.7364 116.884 42.7456 116.884 42.7569L116.896 49.3237C116.896 49.335 116.905 49.3442 116.916 49.3442L118.581 49.3413C118.592 49.3413 118.601 49.3321 118.601 49.3207L118.59 42.7539C118.59 42.7426 118.58 42.7334 118.569 42.7335Z" fill="black"/>
</svg>
