<svg width="32" height="32" viewBox="0 0 32 32" fill="none" xmlns="http://www.w3.org/2000/svg">
<rect width="32" height="32" rx="16" fill="#FEE3F2"/>
<g clip-path="url(#clip0_404_4858)">
<path d="M16.0005 16C18.7037 16 21.1621 16.783 22.9706 17.8853C23.8731 18.4381 24.6448 19.0868 25.2022 19.7919C25.7505 20.4869 26.1544 21.3173 26.1544 22.2052C26.1544 23.1585 25.6907 23.9099 25.0228 24.4458C24.4621 25.0257 22.9706 26.1539 21.6416 26.718C19.9492 27.2821 18.5153 27.8462 16.0005 27.8462C13.4858 27.8462 10.7924 26.9345 9.2313 26.1539C8.10309 25.5898 7.5356 25.0415 6.97488 24.4616C6.32835 23.7929 5.84668 23.1585 5.84668 22.2052C5.84668 21.3173 6.25058 20.4869 6.79888 19.7919C7.35622 19.0868 8.12678 18.4381 9.03047 17.8853C10.839 16.783 13.2985 16 16.0005 16ZM16.0005 3.58978C17.4966 3.58978 18.9314 4.1841 19.9893 5.242C21.0472 6.2999 21.6416 7.73472 21.6416 9.23081C21.6416 10.7269 21.0472 12.1617 19.9893 13.2196C18.9314 14.2775 17.4966 14.8718 16.0005 14.8718C14.5044 14.8718 13.0696 14.2775 12.0117 13.2196C10.9538 12.1617 10.3595 10.7269 10.3595 9.23081C10.3595 7.73472 10.9538 6.2999 12.0117 5.242C13.0696 4.1841 14.5044 3.58978 16.0005 3.58978Z" fill="#303237"/>
</g>
<defs>
<clipPath id="clip0_404_4858">
<rect width="27.0769" height="27.0769" fill="white" transform="translate(2.46191 2.46155)"/>
</clipPath>
</defs>
</svg>
