<svg width="16" height="16" viewBox="0 0 16 16" fill="none" xmlns="http://www.w3.org/2000/svg">
<path d="M6.95 9.34219L5.3375 7.72969C5.2 7.59219 5.025 7.52344 4.8125 7.52344C4.6 7.52344 4.425 7.59219 4.2875 7.72969C4.15 7.86719 4.08125 8.04219 4.08125 8.25469C4.08125 8.46719 4.15 8.64219 4.2875 8.77969L6.425 10.9172C6.575 11.0672 6.75 11.1422 6.95 11.1422C7.15 11.1422 7.325 11.0672 7.475 10.9172L11.7125 6.67969C11.85 6.54219 11.9188 6.36719 11.9188 6.15469C11.9188 5.94219 11.85 5.76719 11.7125 5.62969C11.575 5.49219 11.4 5.42344 11.1875 5.42344C10.975 5.42344 10.8 5.49219 10.6625 5.62969L6.95 9.34219ZM8 15.4922C6.9625 15.4922 5.9875 15.2952 5.075 14.9012C4.1625 14.5072 3.36875 13.9729 2.69375 13.2984C2.01875 12.6234 1.4845 11.8297 1.091 10.9172C0.6975 10.0047 0.5005 9.02969 0.5 7.99219C0.5 6.95469 0.697 5.97969 1.091 5.06719C1.485 4.15469 2.01925 3.36094 2.69375 2.68594C3.36875 2.01094 4.1625 1.47669 5.075 1.08319C5.9875 0.689688 6.9625 0.492687 8 0.492188C9.0375 0.492188 10.0125 0.689188 10.925 1.08319C11.8375 1.47719 12.6313 2.01144 13.3063 2.68594C13.9813 3.36094 14.5157 4.15469 14.9097 5.06719C15.3037 5.97969 15.5005 6.95469 15.5 7.99219C15.5 9.02969 15.303 10.0047 14.909 10.9172C14.515 11.8297 13.9808 12.6234 13.3063 13.2984C12.6313 13.9734 11.8375 14.5079 10.925 14.9019C10.0125 15.2959 9.0375 15.4927 8 15.4922ZM8 13.9922C9.675 13.9922 11.0937 13.4109 12.2562 12.2484C13.4187 11.0859 14 9.66719 14 7.99219C14 6.31719 13.4187 4.89844 12.2562 3.73594C11.0937 2.57344 9.675 1.99219 8 1.99219C6.325 1.99219 4.90625 2.57344 3.74375 3.73594C2.58125 4.89844 2 6.31719 2 7.99219C2 9.66719 2.58125 11.0859 3.74375 12.2484C4.90625 13.4109 6.325 13.9922 8 13.9922Z" fill="#303237"/>
</svg>
